<?xml version="1.0" encoding="UTF-8" standalone="no"?>
<svg width="36px" height="49px" viewBox="0 0 36 49" version="1.1" xmlns="http://www.w3.org/2000/svg" xmlns:xlink="http://www.w3.org/1999/xlink" xmlns:sketch="http://www.bohemiancoding.com/sketch/ns">
    <title>css3</title>
    <description>Created with Sketch (http://www.bohemiancoding.com/sketch)</description>
    <defs></defs>
    <g id="Page-1" stroke="none" stroke-width="1" fill="none" fill-rule="evenodd" sketch:type="MSPage">
        <g id="Article" sketch:type="MSArtboardGroup" transform="translate(-252.000000, -400.000000)">
            <g id="Home" sketch:type="MSLayerGroup" transform="translate(-25.000000, 164.000000)">
                <g id="Specialized" transform="translate(64.000000, 236.000000)" sketch:type="MSShapeGroup">
                    <g id="css3" transform="translate(213.000000, 0.000000)">
                        <path d="M27.4249158,1.77668571 L24.5155556,1.77668571 L27.5411111,4.96057143 L27.5411111,6.47611429 L21.3092256,6.47611429 L21.3092256,4.70171429 L24.3341919,4.70171429 L21.3092256,1.51771429 L21.3092256,0 L27.4249158,0 L27.4249158,1.77668571 L27.4249158,1.77668571 Z M20.0739731,1.77668571 L17.1646128,1.77668571 L20.1900505,4.96057143 L20.1900505,6.47611429 L13.958165,6.47611429 L13.958165,4.70171429 L16.9834848,4.70171429 L13.958165,1.51771429 L13.958165,0 L20.0739731,0 L20.0739731,1.77668571 L20.0739731,1.77668571 Z M12.7949158,1.8488 L9.65552189,1.8488 L9.65552189,4.62742857 L12.7949158,4.62742857 L12.7949158,6.47611429 L7.42424242,6.47611429 L7.42424242,1.77635684e-15 L12.7949158,1.77635684e-15 L12.7949158,1.8488 L12.7949158,1.8488 Z" id="Shape" fill="#131313"></path>
                        <path d="M3.19018519,44.1851429 L7.10542736e-15,9.48571429 L35.0530303,9.48571429 L31.859899,44.1795429 L17.5050673,48.0389714 L3.19018519,44.1851429 Z" id="Shape" fill="#1572B6"></path>
                        <path d="M17.5589226,44.9946286 L29.158064,41.876 L31.8870034,12.2285714 L17.5589226,12.2285714 L17.5589226,44.9946286 Z" id="Shape" fill="#33A9DC"></path>
                        <path d="M17.5589226,24.8424 L23.3657407,24.8424 L23.7667677,20.4844571 L17.5589226,20.4844571 L17.5589226,16.2285714 L17.5741246,16.2285714 L28.5627104,16.2285714 L28.4574747,17.3704 L27.3789562,29.0979429 L17.5589226,29.0979429 L17.5589226,24.8424 Z" id="Shape" fill="#FFFFFF"></path>
                        <path d="M17.5195623,35.8686857 L17.5003535,35.8739429 L12.6130808,34.5940571 L12.3005556,31.2 L9.92585859,31.2 L7.8956229,31.2 L8.51030303,37.8819429 L17.4992929,40.3020571 L17.5195623,40.2965714 L17.5195623,35.8686857 Z" id="Shape" fill="#EBEBEB"></path>
                        <path d="M22.9816835,28.9142857 L22.453266,34.6137143 L17.5589226,35.8948571 L17.5589226,40.3225143 L26.555101,37.9044571 L26.6210943,37.1856 L27.3844949,28.9142857 L22.9816835,28.9142857 Z" id="Shape" fill="#FFFFFF"></path>
                        <path d="M17.592037,16.2285714 L17.592037,18.8717714 L17.592037,20.4739429 L17.592037,20.4844571 L7.00624579,20.4844571 L6.99222222,20.4844571 L6.90419192,19.5278857 L6.70420875,17.3704 L6.5993266,16.2285714 L17.592037,16.2285714 Z" id="Shape" fill="#EBEBEB"></path>
                        <path d="M17.592037,24.9142857 L17.592037,27.5576 L17.592037,29.1595429 L17.592037,29.1700571 L12.7806566,29.1700571 L12.766633,29.1700571 L12.6787205,28.2136 L12.4786195,26.0561143 L12.3737374,24.9142857 L17.592037,24.9142857 Z" id="Shape" fill="#EBEBEB"></path>
                    </g>
                </g>
            </g>
        </g>
    </g>
</svg>