<?xml version="1.0" encoding="UTF-8" standalone="no"?>
<svg width="35px" height="48px" viewBox="0 0 35 48" version="1.1" xmlns="http://www.w3.org/2000/svg" xmlns:xlink="http://www.w3.org/1999/xlink" xmlns:sketch="http://www.bohemiancoding.com/sketch/ns">
    <title>html5</title>
    <description>Created with Sketch (http://www.bohemiancoding.com/sketch)</description>
    <defs></defs>
    <g id="Page-1" stroke="none" stroke-width="1" fill="none" fill-rule="evenodd" sketch:type="MSPage">
        <g id="Article" sketch:type="MSArtboardGroup" transform="translate(-195.000000, -400.000000)">
            <g id="Home" sketch:type="MSLayerGroup" transform="translate(-25.000000, 164.000000)">
                <g id="Specialized" transform="translate(64.000000, 236.000000)" sketch:type="MSShapeGroup">
                    <g id="html5" transform="translate(156.000000, 0.000000)">
                        <path d="M3.13475421,44.1446857 L0.0358316498,9.44525714 L34.0873468,9.44525714 L30.9852189,44.1390857 L17.0407542,47.9984 L3.13475421,44.1446857 Z" id="Shape" fill="#E44F26"></path>
                        <path d="M17.0615892,45.0485714 L28.3293266,41.9299429 L30.9804108,12.2824 L17.0615892,12.2824 L17.0615892,45.0485714 Z" id="Shape" fill="#F1662A"></path>
                        <path d="M17.0615892,25.152 L11.4206801,25.152 L11.0309966,20.7940571 L17.0615892,20.7940571 L17.0615892,16.5381714 L17.0468215,16.5381714 L6.37219529,16.5381714 L6.47430976,17.68 L7.52201347,29.4075429 L17.0615892,29.4075429 L17.0615892,25.152 Z" id="Shape" fill="#EBEBEB"></path>
                        <path d="M17.0615892,36.2043429 L17.0429293,36.2096 L12.2952929,34.9297143 L11.991697,31.5356571 L9.68484848,31.5356571 L7.71250505,31.5356571 L8.30973737,38.2176 L17.041899,40.6377143 L17.0615892,40.6322286 L17.0615892,36.2043429 Z" id="Shape" fill="#EBEBEB"></path>
                        <path d="M3.20401347,0.0154285714 L5.37039731,0.0154285714 L5.37039731,2.15211429 L7.35212795,2.15211429 L7.35212795,0.0154285714 L9.51862626,0.0154285714 L9.51862626,6.48605714 L7.35224242,6.48605714 L7.35224242,4.31942857 L5.37062626,4.31942857 L5.37062626,6.48605714 L3.20401347,6.48605714 L3.20401347,0.0154285714 L3.20401347,0.0154285714 Z" id="Shape" fill="#010101"></path>
                        <path d="M12.3672997,2.16114286 L10.4600943,2.16114286 L10.4600943,0.0154285714 L16.4418047,0.0154285714 L16.4418047,2.16114286 L14.533798,2.16114286 L14.533798,6.48605714 L12.3674141,6.48605714 L12.3674141,2.16114286 L12.3672997,2.16114286 L12.3672997,2.16114286 Z" id="Shape" fill="#010101"></path>
                        <path d="M17.3911717,0.0154285714 L19.6501684,0.0154285714 L21.0395892,2.28902857 L22.4278653,0.0154285714 L24.6875488,0.0154285714 L24.6875488,6.48605714 L22.5300943,6.48605714 L22.5300943,3.27885714 L21.0394747,5.57942857 L21.0022694,5.57942857 L19.5108485,3.27885714 L19.5108485,6.48605714 L17.3910572,6.48605714 L17.3910572,0.0154285714 L17.3911717,0.0154285714 Z" id="Shape" fill="#010101"></path>
                        <path d="M25.7657037,0.0154285714 L27.9326599,0.0154285714 L27.9326599,4.3472 L30.9791515,4.3472 L30.9791515,6.48594286 L25.7655892,6.48594286 L25.7655892,0.0154285714 L25.7657037,0.0154285714 Z" id="Shape" fill="#010101"></path>
                        <path d="M17.0468215,25.152 L17.0468215,29.4075429 L22.296101,29.4075429 L21.8013266,34.9268571 L17.0468215,36.208 L17.0468215,40.6356571 L25.7860808,38.2176 L25.8500741,37.4987429 L26.8518721,26.2947429 L26.9558182,25.152 L25.8071448,25.152 L17.0468215,25.152 Z" id="Shape" fill="#FFFFFF"></path>
                        <path d="M17.0468215,16.5381714 L17.0468215,19.1813714 L17.0468215,20.7835429 L17.0468215,20.7940571 L27.3300471,20.7940571 L27.3437845,20.7940571 L27.4292997,19.8374857 L27.6234545,17.68 L27.7254545,16.5381714 L17.0468215,16.5381714 Z" id="Shape" fill="#FFFFFF"></path>
                    </g>
                </g>
            </g>
        </g>
    </g>
</svg>