<?xml version="1.0" encoding="UTF-8" standalone="no"?>
<svg width="105px" height="24px" viewBox="0 0 105 24" version="1.1" xmlns="http://www.w3.org/2000/svg" xmlns:xlink="http://www.w3.org/1999/xlink" xmlns:sketch="http://www.bohemiancoding.com/sketch/ns">
    <title>jquery</title>
    <description>Created with Sketch (http://www.bohemiancoding.com/sketch)</description>
    <defs></defs>
    <g id="Page-1" stroke="none" stroke-width="1" fill="none" fill-rule="evenodd" sketch:type="MSPage">
        <g id="Article" sketch:type="MSArtboardGroup" transform="translate(-310.000000, -416.000000)">
            <g id="Home" sketch:type="MSLayerGroup" transform="translate(-25.000000, 164.000000)">
                <g id="Specialized" transform="translate(64.000000, 236.000000)" sketch:type="MSShapeGroup">
                    <g id="jquery" transform="translate(271.000000, 16.000000)">
                        <path d="M1.23065891,5.066625 C-0.484341088,7.52175 -0.272459368,10.715625 1.03985246,13.3245 C1.0692073,13.38825 1.10307827,13.448625 1.13506751,13.510125 C1.15350837,13.549875 1.17458364,13.59 1.19716429,13.629 C1.20694923,13.65075 1.22237934,13.674375 1.2347987,13.69575 C1.25587397,13.738125 1.27845461,13.7775 1.30103526,13.818 C1.34318579,13.888875 1.38533633,13.960875 1.42711052,14.031 C1.45119655,14.07 1.47377719,14.109375 1.50049762,14.148375 C1.54528257,14.224125 1.59721805,14.29875 1.64388472,14.3745 C1.66458364,14.40675 1.68452988,14.43825 1.70711052,14.46975 C1.77409977,14.57175 1.84184171,14.672625 1.91635784,14.772 C1.91635784,14.775 1.91899225,14.777625 1.92162665,14.77875 C1.93291698,14.795625 1.94571268,14.81175 1.957003,14.827125 C2.0202288,14.913375 2.08345461,14.997375 2.14931483,15.080625 C2.17189547,15.111375 2.19711052,15.142125 2.21969117,15.172125 C2.27990622,15.244875 2.33899225,15.317625 2.39807827,15.39 C2.42065891,15.4155 2.44286321,15.44325 2.46694923,15.469875 C2.54560515,15.564 2.62840085,15.65775 2.71270192,15.750375 C2.71270192,15.7515 2.71533633,15.75375 2.71684171,15.756 C2.71985246,15.759375 2.72248687,15.76275 2.72813203,15.7665 C2.80942235,15.855375 2.8925944,15.94275 2.97689547,16.029375 C3.00323956,16.056 3.02995999,16.081875 3.05969117,16.11 C3.12404601,16.17525 3.18877719,16.240875 3.25764816,16.305375 C3.28587397,16.332 3.31372343,16.357875 3.34044386,16.38375 C3.43039009,16.46775 3.52033633,16.55175 3.61442235,16.632 C3.61592773,16.6335 3.61743311,16.63425 3.61856214,16.635375 C3.63399225,16.648875 3.65092773,16.662375 3.6652288,16.6755 C3.74764816,16.746 3.8308202,16.816125 3.91512128,16.8855 C3.94899225,16.913625 3.98248687,16.939875 4.01635784,16.96725 C4.08635784,17.02275 4.15673418,17.075625 4.22673418,17.128875 C4.2636159,17.15625 4.30012128,17.184375 4.33775569,17.212875 C4.41377719,17.2695 4.49243311,17.325 4.56958364,17.379375 C4.59780945,17.4 4.62565891,17.42025 4.65539009,17.439 C4.66254063,17.445 4.6708202,17.451 4.67797074,17.456625 C4.75512128,17.506875 4.82813203,17.556 4.90415354,17.6055 C4.93764816,17.62725 4.97001375,17.64825 5.00237934,17.67 C5.12017504,17.744625 5.23834708,17.817 5.35501375,17.88675 C5.38850837,17.904375 5.42237934,17.9235 5.45474493,17.94225 C5.54168042,17.9925 5.63012128,18.042375 5.72006751,18.09 C5.76936859,18.117375 5.81829332,18.141 5.86909977,18.166125 C5.92931483,18.199125 5.99254063,18.2325 6.05727182,18.2655 C6.07270192,18.271875 6.08813203,18.2775 6.10205676,18.285 C6.12877719,18.297 6.15436859,18.3105 6.1792073,18.322875 C6.27780945,18.37125 6.37904601,18.416625 6.48291698,18.46275 C6.50248687,18.472125 6.52356214,18.480375 6.54463741,18.490875 C6.66130407,18.541125 6.77797074,18.5895 6.89727182,18.636375 C6.92549762,18.646875 6.95334708,18.659625 6.98307827,18.669375 C7.09108902,18.711375 7.2036159,18.752625 7.31463741,18.792375 C7.32856214,18.798375 7.34098149,18.8025 7.35528257,18.807 C7.47872343,18.849375 7.60103526,18.889125 7.72598149,18.92775 C7.75533633,18.936 7.78506751,18.9465 7.81592773,18.954375 C7.94388472,18.992625 8.06732558,19.037625 8.19791698,19.062 C16.4899062,20.568 18.8988847,14.096625 18.8988847,14.096625 C16.8749062,16.721625 13.2830783,17.415375 9.88092773,16.644 C9.75447612,16.6155 9.62952988,16.575375 9.50157289,16.5375 C9.47184171,16.52925 9.43834708,16.5195 9.4086159,16.509 C9.28517504,16.471875 9.16323956,16.43175 9.04356214,16.39125 C9.02662665,16.385625 9.00856214,16.379625 8.99162665,16.3725 C8.8836159,16.335375 8.77673418,16.294875 8.6702288,16.253625 C8.64049762,16.240875 8.60963741,16.230375 8.57990622,16.219125 C8.46211052,16.173 8.34544386,16.1235 8.23178794,16.073625 C8.20657289,16.064625 8.18512128,16.054125 8.1614116,16.044375 C8.06168042,15.998625 7.96608902,15.954 7.86936859,15.9075 C7.83963741,15.895125 7.81329332,15.88125 7.78356214,15.866625 C7.70754063,15.830625 7.63189547,15.790875 7.55737934,15.7515 C7.50544386,15.72525 7.45501375,15.7005 7.40571268,15.6735 C7.31463741,15.624375 7.22318579,15.572625 7.13173418,15.522375 C7.10350837,15.50325 7.07264816,15.487125 7.04028257,15.469875 C6.92248687,15.39975 6.80318579,15.32775 6.68651913,15.2535 C6.6530245,15.2325 6.62178794,15.211125 6.59092773,15.18975 C6.50549762,15.13575 6.42119655,15.079125 6.3380245,15.02325 C6.31130407,15.004125 6.28495999,14.984625 6.25673418,14.965125 C6.17657289,14.908875 6.09791698,14.852625 6.01813203,14.794125 C5.98426106,14.7675 5.94926106,14.74125 5.91237934,14.714625 C5.84087397,14.659125 5.76936859,14.60475 5.69786321,14.547375 C5.66662665,14.5215 5.63463741,14.496 5.60340085,14.470875 C5.5108202,14.397 5.42388472,14.322375 5.33506751,14.2455 C5.32678794,14.2365 5.31436859,14.228625 5.3042073,14.221125 C5.21012128,14.137125 5.11603526,14.05125 5.02345461,13.96575 C4.9952288,13.939125 4.97151913,13.91475 4.94329332,13.88925 C4.87592773,13.823625 4.80856214,13.759125 4.74270192,13.69275 C4.71447612,13.665 4.68888472,13.63875 4.66254063,13.612125 C4.57823956,13.527375 4.49506751,13.44 4.41377719,13.35075 C4.40963741,13.347 4.40549762,13.342875 4.40098149,13.338 C4.31555139,13.24425 4.23275569,13.149 4.14958364,13.05225 C4.127003,13.026375 4.10630407,12.99975 4.08372343,12.974625 C4.02313203,12.900375 3.96291698,12.82575 3.90119655,12.7515 C3.88125031,12.722625 3.85866966,12.695625 3.83646536,12.6675 C3.76458364,12.575625 3.69608902,12.484125 3.62721805,12.389625 C1.73909977,9.823125 1.05791698,6.281625 2.56818579,3.375" id="Fill-21" fill="#1D5E98"></path>
                        <path d="M6.57821427,2.925 C5.33514975,4.702875 5.40402072,7.083 6.37197771,8.964 C6.53192395,9.279 6.71445083,9.585 6.91955836,9.87525 C7.10509599,10.141125 7.31020352,10.456125 7.55859061,10.6695 C7.64590244,10.767375 7.73998846,10.862625 7.83708524,10.958625 C7.86079491,10.98225 7.88488094,11.0055 7.91009599,11.030625 C8.00267664,11.1195 8.09676266,11.206875 8.19348309,11.292375 C8.19649384,11.296125 8.202139,11.2995 8.20514975,11.302875 C8.20627879,11.303625 8.20778416,11.30475 8.20778416,11.30475 C8.31579491,11.4 8.42568739,11.490375 8.5393433,11.5785 C8.56606373,11.597625 8.58977341,11.618625 8.61649384,11.637375 C8.72902072,11.725125 8.84418201,11.80875 8.96084868,11.89125 C8.96498846,11.89275 8.96762287,11.89575 8.97326803,11.898 C9.02407448,11.934 9.077139,11.96775 9.13208524,12.002625 C9.15579491,12.018 9.18100997,12.036375 9.20509599,12.051 C9.2905261,12.1065 9.37520352,12.157875 9.462139,12.20925 C9.4749347,12.215625 9.48735405,12.222375 9.50014975,12.22875 C9.57316051,12.273 9.65031104,12.316125 9.72783793,12.3555 C9.75418201,12.371625 9.78090244,12.384 9.80762287,12.398625 C9.86106373,12.42525 9.91450459,12.453375 9.96644008,12.48075 C9.97321427,12.484125 9.98337556,12.48825 9.99165513,12.492 C10.1011713,12.546 10.2121928,12.5955 10.3217089,12.645375 C10.3484293,12.655875 10.37101,12.664875 10.396225,12.675375 C10.4861713,12.713625 10.5772465,12.7515 10.6675691,12.786 C10.7082143,12.799125 10.746225,12.81525 10.7838594,12.828375 C10.8666551,12.858 10.9513325,12.8865 11.0341282,12.913875 C11.0747734,12.927375 11.1112788,12.93825 11.1477842,12.95025 C11.2659562,12.987375 11.3852573,13.035 11.5102035,13.0545 C17.9099347,14.112 19.3904723,9.199875 19.3904723,9.199875 C18.0574616,11.113125 15.4772465,12.024375 12.7239132,11.31225 C12.600096,11.28075 12.4796659,11.2455 12.3614938,11.206875 C12.3234831,11.197125 12.2899885,11.1855 12.2534831,11.17275 C12.1676766,11.145375 12.0818702,11.116875 11.9990745,11.08575 C11.9610637,11.071875 11.9219239,11.058 11.8839132,11.043375 C11.7924616,11.007375 11.7013863,10.9725 11.6125691,10.9335 C11.586225,10.922625 11.5606336,10.913625 11.5399347,10.90275 C11.4259024,10.853625 11.3133756,10.801125 11.2038594,10.748625 C11.1477842,10.71975 11.0932143,10.692 11.0367627,10.66275 C11.003268,10.645875 10.9709024,10.62975 10.9411713,10.614375 C10.8666551,10.57575 10.7977842,10.53525 10.7277842,10.494 C10.7108487,10.484625 10.6939132,10.476375 10.6773541,10.466625 C10.5915476,10.414875 10.5031067,10.363125 10.4214401,10.309125 C10.3935906,10.293 10.3695046,10.274625 10.3427842,10.258125 C10.2867089,10.2225 10.2317627,10.186875 10.174182,10.14825 C10.0578917,10.067625 9.94385943,9.9825 9.83020352,9.897 C9.80348309,9.87525 9.77826803,9.85575 9.75305298,9.83475 C8.54498846,8.887125 7.58945083,7.591125 7.13746158,6.123375 C6.65988094,4.599 6.76525728,2.887875 7.5883218,1.5" id="Fill-23" fill="#1D5E98"></path>
                        <path d="M11.1613622,1.501125 C10.4282439,2.57325 10.3578676,3.904875 10.863674,5.087625 C11.3999644,6.344625 12.4970074,7.330875 13.7754482,7.797375 C13.8273837,7.817625 13.8793192,7.8345 13.93276,7.852875 C13.9568461,7.859625 13.9790504,7.8675 14.0046418,7.875 C14.0791579,7.89825 14.1532977,7.926375 14.2304482,7.941 C17.7662009,8.62125 18.724373,6.133125 18.981416,5.767125 C18.1399106,6.972375 16.7282439,7.261125 14.9963084,6.84225 C14.8600719,6.80925 14.7110396,6.7605 14.5789428,6.712875 C14.4103407,6.65325 14.2432439,6.583875 14.0802869,6.50775 C13.7754482,6.36 13.4803945,6.18225 13.2079213,5.976375 C11.6570074,4.804875 10.6965773,2.57025 11.7078138,0.75" id="Fill-24" fill="#1D5E98"></path>
                        <path id="Fill-25" fill="#2E2E2C" d="M93.0570968,6.375 L93.1959677,6.9585 C93.2351075,7.12575 93.1286022,7.261125 92.9569892,7.261125"></path>
                        <path d="M81.866129,5.625 C81.831129,5.787 81.7889785,5.991 81.761129,6.126375 L80.5376344,11.832 L81.8243548,5.821125 L81.866129,5.625" id="Fill-26" fill="#2E2E2C"></path>
                        <path d="M45.0845161,9.375 L44.4086022,11.75925 L45.0845161,9.375375 L45.0845161,9.375" id="Fill-27" fill="#2E2E2C"></path>
                        <path d="M92.9132403,7.193625 L92.5606059,5.70825 C92.2824876,4.633125 91.4944231,4.125 89.7233479,4.125 L82.273993,4.125 C82.1023801,4.125 81.9311436,4.201875 81.8961436,4.369125 L79.0701758,17.724375 C79.0332941,17.8935 79.0223801,18.0135 79.0415737,18.097125 C79.0615199,18.183 79.393079,18.166875 79.5628102,18.166875 L82.1434016,18.166875 C82.3161436,18.166875 82.6296382,18.179625 82.7207134,18.14325 C82.8163048,18.103875 82.8584554,17.84925 82.8934554,17.680875 L83.8053371,12.99825 L84.9193156,7.804125 C84.9554446,7.637625 85.1240468,7.501125 85.2956597,7.501125 L92.6742618,7.49625 C92.8443694,7.49625 92.9523801,7.3605 92.9132403,7.193625" id="Fill-28" fill="#2E2E2C"></path>
                        <path d="M103.680274,1.876125 C103.507532,1.878 100.407962,1.876125 100.407962,1.876125 C100.236725,1.876125 100.016188,2.0595 99.9205962,2.200875 L94.1764564,10.6215 C94.0786069,10.762875 93.9675854,10.757625 93.9295747,10.5915 L93.5050585,8.74575 C93.4689295,8.5785 93.2976929,8.442 93.1234456,8.442 L89.4315101,8.442 C89.261779,8.442 89.159037,8.583375 89.2041983,8.74875 L90.8589833,14.52975 C90.906779,14.695125 90.9109187,14.9655 90.8683919,15.13125 L90.0968865,18.05925 C90.055865,18.225 90.1612413,18.27525 90.3354886,18.27525 L93.9807575,18.27525 C94.151994,18.27525 94.3292521,18.226125 94.3710263,18.05925 L95.1432843,15.09 C95.1854349,14.924625 95.3047359,14.69925 95.4071015,14.56125 L104.781456,2.1735 C104.886833,2.03775 104.871779,1.875 104.700542,1.875 L103.680274,1.876125" id="Fill-30" fill="#2E2E2C"></path>
                        <path d="M65.1259296,4.125 L61.793779,4.125 C61.6240479,4.125 61.4498006,4.184625 61.4159296,4.352625 L60.3147468,9.48675 L59.2177038,14.403 C59.1827038,14.569875 59.0125963,14.55825 58.8409833,14.55825 L56.6514135,14.55825 C54.4851769,14.55825 54.7350694,13.19475 55.1806608,11.15025 C55.1859296,11.13 56.5697468,4.352625 56.5697468,4.352625 C56.600607,4.185375 56.4880801,4.125 56.3183489,4.125 L53.1438866,4.125 C52.97265,4.125 52.8021661,4.185375 52.7690479,4.352625 L51.491736,11.145375 C50.8549618,14.8185 50.8357683,18.05025 55.1102844,18.15675 C55.1806608,18.159375 61.8600156,18.15675 61.8600156,18.15675 C62.0327575,18.15675 62.2024887,18.1005 62.2393704,17.93475 L63.6886715,11.1225 L65.1327038,4.28175 C65.1327038,4.28175 65.1838866,4.125 65.1259296,4.125" id="Fill-32" fill="#2E2E2C"></path>
                        <path d="M32.0790587,4.125 L28.5068007,4.125 C28.3355641,4.125 28.1628222,4.1655 28.1248114,4.3335 L27.480134,7.112625 C27.4436286,7.27725 27.5531448,7.4085 27.7258867,7.4085 L31.1461018,7.4085 C31.31922,7.4085 31.4904566,7.25325 31.526962,7.0875 L32.1479297,4.287375 C32.1479297,4.287375 32.1972308,4.125 32.0790587,4.125" id="Fill-33" fill="#2E2E2C"></path>
                        <path d="M27.5201111,8.25 C27.35038,8.25 27.1761327,8.385375 27.1396273,8.55225 L26.6575305,10.672125 L25.5830681,15.567375 C25.5830681,15.567375 25.0114015,18.169875 24.9564552,18.332625 C24.9564552,18.332625 24.4751111,20.21175 23.3250036,20.136375 C22.7898423,20.101125 22.1782832,19.978875 22.1782832,19.978875 L22.1767778,19.978875 C21.8550036,19.882125 21.832423,20.21475 21.7932832,20.380875 L21.0838746,23.43075 C21.0428531,23.597625 21.1527456,23.748 21.3228531,23.75025 C21.3228531,23.75025 22.860595,23.96625 23.9467241,23.96625 L24.1251111,23.96625 C26.8080681,23.96625 28.22538,22.39425 29.1312402,18.126375 L30.1932832,13.186125 L31.1890896,8.589375 C31.2259714,8.422125 31.1243585,8.266875 30.9531219,8.266875" id="Fill-34" fill="#2E2E2C"></path>
                        <path d="M75.2868371,10.000875 C75.2868371,10.1865 74.6986113,10.150875 74.6986113,10.150875 L70.0142565,10.117125 C69.8524285,10.117125 69.8061382,9.891 69.7948479,9.729375 C69.7944715,9.72375 69.8065145,9.5355 69.8204393,9.488625 C70.1824823,8.23725 71.2629661,7.522125 72.9753317,7.522125 C74.9022135,7.522125 75.3139339,8.474625 75.3139339,9.530625 M73.7028048,4.125 C67.6937188,4.125 66.2594715,7.825875 65.4616221,11.49375 C64.6633962,15.233625 64.7315145,18.18975 70.9490952,18.18975 L71.1733962,18.18975 L76.6371597,18.18975 C76.8053855,18.18675 76.9739876,18.033 77.0078586,17.86725 L77.6190414,15.494625 C77.6544178,15.326625 77.5403855,15.277125 77.3706543,15.277125 L71.7785575,15.277125 C69.7530737,15.277125 69.0278586,14.655375 69.0986113,13.259625 C69.0971059,13.100625 69.2796328,12.696 69.4508694,12.696 L78.0646328,12.696 C78.4428586,12.694125 78.4549016,12.473625 78.4549016,12.473625 C79.3317833,8.530125 79.3889876,4.125 73.7028048,4.125" id="Fill-35" fill="#2E2E2C"></path>
                        <path d="M44.3345662,11.649 L43.6420931,14.007375 C43.5942974,14.17275 43.3989748,14.283 43.2273619,14.283 L39.6551038,14.283 C36.9442974,14.283 36.2853189,12.195375 36.9442974,9.080625 C37.6059103,5.8965 38.9167167,3.92625 41.5827382,3.72675 C45.228007,3.453 45.973921,6.018 45.0902651,8.966625 L44.3345662,11.649 L44.3345662,11.649 Z M47.5090286,14.148 C47.5090286,14.148 49.1920393,10.074375 49.5736522,7.720125 C50.0963941,4.569375 48.5146199,0 42.3986522,0 C36.3191898,0 33.6810178,4.362375 32.6712866,9.105 C31.6653189,13.882125 32.9821468,18.04125 39.0281146,18.0075 L48.2560716,18.001875 C48.4261791,18.001125 48.6034372,17.86425 48.6470931,17.701125 L49.4249963,14.7495 C49.4671468,14.582625 49.3617705,14.447625 49.1890286,14.446875 L48.445749,14.44125 L47.7028458,14.437875 C47.5568242,14.43675 47.4725232,14.341875 47.4920931,14.217 C47.4947275,14.194125 47.4977382,14.171625 47.5090286,14.148 L47.5090286,14.148 Z" id="Fill-37" fill="#2E2E2C"></path>
                    </g>
                </g>
            </g>
        </g>
    </g>
</svg>