<?xml version="1.0" encoding="UTF-8" standalone="no"?>
<svg width="53px" height="64px" viewBox="0 0 53 64" version="1.1" xmlns="http://www.w3.org/2000/svg" xmlns:xlink="http://www.w3.org/1999/xlink" xmlns:sketch="http://www.bohemiancoding.com/sketch/ns">
    <title>louis-vuitton</title>
    <description>Created with Sketch (http://www.bohemiancoding.com/sketch)</description>
    <defs></defs>
    <g id="Page-1" stroke="none" stroke-width="1" fill="none" fill-rule="evenodd" sketch:type="MSPage">
        <g id="Article" sketch:type="MSArtboardGroup" transform="translate(-570.000000, -289.000000)" fill="#000000">
            <g id="Home" sketch:type="MSLayerGroup" transform="translate(-25.000000, 164.000000)">
                <g id="Clients-SVG" transform="translate(225.000000, 125.000000)" sketch:type="MSShapeGroup">
                    <g id="Louis_Vuitton_Logo" transform="translate(370.000000, 0.000000)">
                        <g id="#000000ff">
                            <path d="M39.1410638,0.0132505176 C43.6888486,0.0132505176 48.2372966,0.0125879917 52.7850814,0.0139130435 C52.7877347,1.036853 52.7797747,2.06045549 52.7897247,3.08405797 C51.6342053,3.13440994 50.452816,3.26360248 49.388836,3.74658385 C48.3095995,4.23089027 47.4048185,5.11204969 46.9391615,6.20322981 C41.4089862,19.187412 35.882791,32.1729193 30.3585857,45.1597516 C30.2630663,45.3730849 30.1861202,45.593706 30.0746809,45.7997516 C28.0966333,45.7765631 26.1179224,45.7964389 24.1398748,45.7891511 C23.2669337,44.056646 22.4079224,42.316853 21.5276846,40.588323 C20.518761,43.2887785 19.5038673,45.9865839 18.4949437,48.6863768 C25.0201126,48.6870393 31.5452816,48.6863768 38.0704506,48.6870393 C39.2651064,48.70294 40.495582,48.6532505 41.6132916,48.1868323 C43.4706133,47.4414907 44.949174,46.0011594 46.1524531,44.4395859 C47.6051439,42.547412 48.707597,40.4173913 49.6899875,38.2529193 C50.7917772,38.2436439 51.8929036,38.2562319 52.99403,38.2542443 C50.9058698,42.7090683 48.8070964,47.1599172 46.700363,51.6061284 C31.6640175,51.6067909 16.6283354,51.6061284 1.59198999,51.6061284 C1.95814768,50.6514286 2.30639549,49.6887785 2.69908636,48.7440166 C2.72296621,48.6466253 2.84435544,48.6711387 2.91798498,48.6618634 C4.79520651,48.6479503 6.68503129,48.5750725 8.52709637,48.1848447 C9.48560701,47.9602484 10.4772841,47.6607867 11.2149061,46.97706 C11.6049437,46.605383 11.7263329,46.0627743 11.8556821,45.5619048 C13.6314143,40.8155694 15.4097997,36.0698965 17.1868586,31.3242236 C13.4310889,23.3315114 9.66271589,15.3434369 5.9049562,7.35138716 C5.6024781,6.65242236 5.20315394,5.96008282 4.57498123,5.50492754 C3.27485607,4.53233954 1.5853567,4.40910973 0.0198998748,4.3468323 C0.0185732165,3.20132505 0.0198998748,2.05648033 0.0192365457,0.910973085 C5.29867334,0.908985507 10.5774468,0.909648033 15.8568836,0.910310559 C15.8575469,2.05581781 15.8582103,3.20132505 15.8562203,4.3468323 C15.1683479,4.39055901 14.4380225,4.37929607 13.8151564,4.71917184 C13.5060451,4.86492754 13.3242929,5.23196687 13.4038924,5.56587992 C13.5014018,6.11246377 13.9338924,6.50269151 14.152791,6.99627329 C16.3822403,11.7922981 18.6116896,16.5889855 20.8477722,21.3830228 C21.9681352,18.253913 23.0884981,15.1254658 24.2135044,11.9983437 C24.3786733,11.5637267 24.4370463,11.0615321 24.2486608,10.624265 C24.1007384,10.279089 23.7650939,10.0657557 23.4340926,9.92198758 C22.7906633,9.65697723 22.0835544,9.65962733 21.4016521,9.61060041 C21.7498999,8.64397516 22.1001377,7.6773499 22.4609887,6.71602484 C22.5445682,6.66236025 22.6606508,6.70343685 22.7568335,6.69018634 C28.1132165,6.69349896 33.4702628,6.69018634 38.8273091,6.69217391 C38.4571715,7.66343685 38.0890238,8.63469979 37.7228661,9.60728778 C36.4326909,9.66691511 35.1027159,9.69937888 33.8928035,10.2028986 C33.3382603,10.4347826 32.813567,10.789234 32.4858824,11.302029 C32.2583605,11.6776812 32.1170713,12.09706 31.9645056,12.506501 C29.726433,18.6030642 27.4677972,24.691677 25.2549312,30.7975155 C26.4807635,33.5648861 27.7583354,36.3084058 29.0087109,39.0645135 C33.549199,28.3554451 38.0883605,17.6450518 42.6341552,6.93797101 C42.9406133,6.29399586 43.4394368,5.7063354 43.4785732,4.96563147 C43.516383,4.38592133 43.0858824,3.88571429 42.5870588,3.64786749 C41.5118023,3.15229814 40.3032165,3.12778468 39.1410638,3.08604555 C39.1397372,2.06178054 39.1397372,1.03751553 39.1410638,0.0132505176 L39.1410638,0.0132505176 Z" id="path5"></path>
                            <path d="M47.3975219,57.675528 C48.8309762,59.1582609 50.2531539,60.6509317 51.6726783,62.1462526 C51.6706884,60.7562733 51.6786483,59.3656315 51.6773217,57.9756522 C51.9227534,57.9763147 52.1681852,57.9736646 52.4142804,57.970352 C52.4149437,59.954617 52.4149437,61.9395445 52.4142804,63.9238095 C50.9794994,62.4483644 49.5659449,60.9530435 48.1384606,59.4703106 C48.1404506,60.8689027 48.1351439,62.2681573 48.1344806,63.667412 C47.8883855,63.6693996 47.6429537,63.6687371 47.3975219,63.6687371 C47.3968586,61.670559 47.3961952,59.6730435 47.3975219,57.675528 L47.3975219,57.675528 Z" id="path7"></path>
                            <path d="M5.66814768,57.8795859 C7.24753442,57.6371014 8.91846058,58.8720497 9.05908636,60.4806625 C9.19175219,61.400911 8.83421777,62.3602484 8.15961202,62.9942857 C7.05052566,64.0781781 5.05589487,64.0583023 3.97931164,62.9359834 C3.39757196,62.3728364 3.06590738,61.5612422 3.10106383,60.7509731 C3.11698373,59.341118 4.28377972,58.0816563 5.66814768,57.8795859 L5.66814768,57.8795859 Z M5.66881101,58.6083644 C4.7494368,58.7580952 4.0012015,59.5643892 3.87251564,60.4780124 C3.69739675,61.5161905 4.33883605,62.6332091 5.34245307,62.9724224 C6.22070088,63.3036853 7.28932416,62.9916356 7.85315394,62.2429814 C8.58215269,61.3293582 8.45877347,59.8552381 7.56195244,59.096646 C7.05782228,58.6388406 6.32882353,58.4877847 5.66881101,58.6083644 L5.66881101,58.6083644 Z" id="path9"></path>
                            <path d="M17.0734293,58.1863354 C17.8826909,57.5794617 19.2047059,57.830559 19.6716896,58.7474948 C19.4766708,58.8574741 19.2816521,58.9681159 19.0866333,59.0780952 C18.7357322,58.5301863 17.8807009,58.3963561 17.4090738,58.8614493 C17.2094118,59.007205 17.2313016,59.2742029 17.2525282,59.493499 C17.3095745,59.7797101 17.6147059,59.9009524 17.8395745,60.0354451 C18.4193242,60.340207 19.1158198,60.5157764 19.5231039,61.068323 C19.9774844,61.6851346 19.9025282,62.6033954 19.4070213,63.1744928 C18.8889612,63.8005797 17.9417272,63.9529607 17.2173717,63.6250104 C16.6615019,63.3507246 16.3178974,62.7710145 16.2064581,62.1767288 C16.4552065,62.117764 16.7052816,62.0634369 16.9546934,62.0077847 C16.9798999,62.5497308 17.4011139,63.0976398 17.9742303,63.1075776 C18.7476721,63.1917184 19.3625782,62.1873292 18.9121777,61.5466667 C18.4312641,60.8927536 17.5039299,60.8834783 16.9507134,60.3183437 C16.2993242,59.7863354 16.3649937,58.6395031 17.0734293,58.1863354 L17.0734293,58.1863354 Z" id="path11"></path>
                            <path d="M43.4785732,57.8756108 C44.5133667,57.7464182 45.5826533,58.2234369 46.2181227,59.0409938 C47.1341802,60.1858385 46.9875845,62.0124224 45.900388,62.9969358 C45.2795119,63.6097723 44.366771,63.8621946 43.5097497,63.7714286 C42.6626783,63.7157764 41.87,63.2414079 41.3811264,62.5550311 C40.8544431,61.82294 40.7177972,60.8443892 40.967209,59.9837681 C41.2929036,58.8687371 42.3316771,58.0213665 43.4785732,57.8756108 L43.4785732,57.8756108 Z M43.3518773,58.6183023 C42.2109512,58.8124224 41.3950563,60.0261698 41.5953817,61.1551139 C41.7220776,62.2409938 42.7535544,63.1248033 43.8447309,63.104265 C44.5889862,63.116853 45.2987484,62.6954865 45.7000626,62.0793375 C46.3096621,61.196853 46.1491364,59.8930021 45.3637547,59.1668737 C44.8496746,58.6467909 44.0556696,58.4712215 43.3518773,58.6183023 L43.3518773,58.6183023 Z" id="path13"></path>
                            <path d="M0.612252816,57.971677 C0.847734668,57.970352 1.08321652,57.970352 1.31869837,57.971677 C1.3193617,59.6538302 1.31803504,61.336646 1.3193617,63.0187992 C1.90441802,63.0201242 2.48881101,63.0187992 3.07386733,63.0194617 C3.07519399,63.2354451 3.07519399,63.4514286 3.07453066,63.6680745 C2.25332916,63.6687371 1.43279099,63.6693996 0.612252816,63.6680745 C0.612916145,61.7692754 0.612916145,59.8704762 0.612252816,57.971677 L0.612252816,57.971677 Z" id="path15"></path>
                            <path d="M9.63021277,57.9763147 C9.87962453,57.9743271 10.1290363,57.9749896 10.3791114,57.9756522 C10.3811014,59.096646 10.3757947,60.2183023 10.3817647,61.3392961 C10.3930413,61.8322153 10.4540676,62.3741615 10.8029787,62.7537888 C11.3581852,63.2977226 12.4486984,63.220207 12.8360826,62.5152795 C13.0317647,62.1840166 13.088811,61.7918012 13.0835044,61.4128364 C13.0788611,60.2673292 13.0788611,59.1218219 13.0795244,57.9756522 C13.3289362,57.9743271 13.5783479,57.9749896 13.8277597,57.9756522 C13.8277597,59.1450104 13.830413,60.3143685 13.8270964,61.4837267 C13.828423,62.0144099 13.7362203,62.5755694 13.3965957,63.002236 C12.6662703,64.012588 10.9734543,64.0702277 10.1734793,63.115528 C9.79339174,62.7180124 9.63684606,62.1575155 9.63153942,61.6182195 C9.62822278,60.404472 9.6308761,59.1900621 9.63021277,57.9763147 L9.63021277,57.9763147 Z" id="path17"></path>
                            <path d="M14.7491239,57.9723395 C14.9945557,57.9696894 15.2406508,57.970352 15.4867459,57.971677 C15.4867459,59.8704762 15.4874093,61.7692754 15.4860826,63.6687371 C15.2406508,63.6687371 14.9945557,63.6693996 14.7484606,63.667412 C14.7497872,61.7692754 14.7497872,59.8704762 14.7491239,57.9723395 L14.7491239,57.9723395 Z" id="path19"></path>
                            <path d="M22.1352941,57.9769772 C22.4052691,57.9696894 22.6765707,57.9696894 22.947209,57.9710145 C23.5136921,59.3556936 24.0715519,60.7436853 24.6280851,62.1323395 C25.1832916,60.748323 25.754418,59.3709317 26.2970213,57.9822774 C26.5749562,57.959089 26.8535544,57.9749896 27.1321527,57.9710145 C26.3036546,59.9857557 25.4718398,61.9991718 24.6360451,64.0106004 C23.7856571,62.0064596 22.9657822,59.9890683 22.1352941,57.9769772 L22.1352941,57.9769772 Z" id="path21"></path>
                            <path d="M27.4697872,57.970352 C27.715219,57.9736646 27.9606508,57.9763147 28.2067459,57.9756522 C28.2153692,59.0794203 28.2054193,60.1838509 28.2147059,61.287619 C28.2319524,61.811677 28.2724155,62.4059627 28.6730663,62.7942029 C29.1354068,63.1897308 29.8717021,63.2142443 30.365219,62.8624431 C30.6524406,62.6583851 30.8103129,62.3191718 30.8726658,61.9812836 C30.9708385,61.3995859 30.9356821,60.8079503 30.9423154,60.2209524 C30.9462954,59.4729607 30.9469587,58.7249689 30.945632,57.9769772 C31.1817772,57.9743271 31.4185857,57.9749896 31.6553942,57.9756522 C31.6660075,59.0131677 31.6573842,60.0500207 31.6600375,61.0875362 C31.6766208,61.7308489 31.6560576,62.4291511 31.26403,62.9724224 C30.5774844,63.9615735 28.9974343,64.0682402 28.1284731,63.2645963 C27.6939925,62.8631056 27.4757572,62.2708075 27.4724406,61.6864596 C27.4658073,60.4475362 27.4711139,59.2092754 27.4697872,57.970352 L27.4697872,57.970352 Z" id="path23"></path>
                            <path d="M32.5814018,57.9756522 C32.8374468,57.9763147 33.0934919,57.9736646 33.3502003,57.9710145 C33.3502003,59.8698137 33.3495369,61.7686128 33.3502003,63.6680745 C33.0921652,63.6687371 32.8347935,63.6687371 32.5774218,63.6680745 C32.5747685,61.7706004 32.5833917,59.8731263 32.5814018,57.9756522 L32.5814018,57.9756522 Z" id="path25"></path>
                            <path d="M33.8105507,57.9756522 C36.1103129,57.9776398 38.4094118,57.971677 40.709174,57.9723395 C40.7085106,58.1995859 40.7085106,58.4268323 40.709174,58.6547412 C40.2680601,58.6567288 39.8276095,58.6547412 39.3871589,58.6554037 C39.385169,60.326294 39.3864956,61.9971843 39.3864956,63.6680745 C39.1297872,63.6687371 38.8737422,63.6687371 38.6170338,63.6680745 C38.6157071,61.9971843 38.6216771,60.326294 38.6143805,58.6554037 C37.7115895,58.6567288 36.8087985,58.6547412 35.9060075,58.6560663 C35.9046809,60.3269565 35.9060075,61.9971843 35.9053442,63.6680745 C35.6698623,63.6687371 35.4343805,63.6687371 35.199562,63.6680745 C35.1988986,61.9971843 35.2002253,60.3269565 35.1988986,58.6560663 C34.7358949,58.6547412 34.2735544,58.6567288 33.8105507,58.6547412 C33.8098874,58.4281573 33.8098874,58.2015735 33.8105507,57.9756522 L33.8105507,57.9756522 Z" id="path27"></path>
                        </g>
                    </g>
                </g>
            </g>
        </g>
    </g>
</svg>