<?xml version="1.0" encoding="UTF-8" standalone="no"?>
<svg width="169px" height="36px" viewBox="0 0 169 36" version="1.1" xmlns="http://www.w3.org/2000/svg" xmlns:xlink="http://www.w3.org/1999/xlink" xmlns:sketch="http://www.bohemiancoding.com/sketch/ns">
    <title>microsoft</title>
    <description>Created with Sketch (http://www.bohemiancoding.com/sketch)</description>
    <defs></defs>
    <g id="Page-1" stroke="none" stroke-width="1" fill="none" fill-rule="evenodd" sketch:type="MSPage">
        <g id="Article" sketch:type="MSArtboardGroup" transform="translate(-200.000000, -302.000000)">
            <g id="Home" sketch:type="MSLayerGroup" transform="translate(-25.000000, 164.000000)">
                <g id="Clients-SVG" transform="translate(225.000000, 125.000000)" sketch:type="MSShapeGroup">
                    <g id="Microsoft_logo_and_wordmark" transform="translate(0.000000, 13.000000)">
                        <path d="M168.958404,16.2632851 L168.958404,13.3018371 L165.268467,13.3018371 L165.268467,8.69778733 L165.144267,8.73586425 L161.678451,9.79265158 L161.610213,9.81342081 L161.610213,13.3018371 L156.139983,13.3018371 L156.139983,11.3586923 C156.139983,10.4538054 156.34306,9.76129412 156.743087,9.29948416 C157.140458,8.84317195 157.708831,8.61124887 158.433496,8.61124887 C158.954674,8.61124887 159.49424,8.73362443 160.037075,8.97491403 L160.173141,9.03538914 L160.173141,5.91654299 L160.109194,5.8931267 C159.602726,5.71170136 158.913609,5.62027602 158.059824,5.62027602 C156.983552,5.62027602 156.005551,5.85362443 155.152787,6.31624887 C154.299411,6.77948416 153.628069,7.44084163 153.157966,8.28179186 C152.689294,9.12172398 152.451484,10.0917692 152.451484,11.1652534 L152.451484,13.3018371 L149.882161,13.3018371 L149.882161,16.2632851 L152.451484,16.2632851 L152.451484,28.7392805 L156.139983,28.7392805 L156.139983,16.2632851 L161.610213,16.2632851 L161.610213,24.1916335 C161.610213,27.4568824 163.155566,29.1117014 166.203164,29.1117014 C166.704117,29.1117014 167.231024,29.0530588 167.769356,28.9384208 C168.317103,28.8209321 168.690161,28.7034434 168.909779,28.5780136 L168.958404,28.5495068 L168.958404,25.5605701 L168.808445,25.6595294 C168.608227,25.7926968 168.358977,25.9012262 168.066626,25.9818597 C167.773034,26.0641222 167.527869,26.105457 167.338079,26.105457 C166.62403,26.105457 166.095913,25.9136471 165.767998,25.5353213 C165.436617,25.1535339 165.268483,24.4856606 165.268483,23.5516561 L165.268483,16.2632851 L168.958404,16.2632851 L168.958404,16.2632851 Z M141.645168,26.1057421 C140.306366,26.1057421 139.250933,25.663276 138.507064,24.7917828 C137.758699,23.91581 137.379512,22.667009 137.379512,21.0804027 C137.379512,19.4435023 137.758699,18.1623258 138.507472,17.2708778 C139.25175,16.3853348 140.297172,15.9359457 141.615135,15.9359457 C142.894076,15.9359457 143.912122,16.3651765 144.641281,17.2124389 C145.374323,18.0639774 145.746156,19.3349729 145.746156,20.9910136 C145.746156,22.6674163 145.396388,23.9551086 144.706659,24.8164208 C144.021833,25.6714208 142.991938,26.1057421 141.645168,26.1057421 L141.645168,26.1057421 Z M141.809428,12.929905 C139.255224,12.929905 137.226488,13.6757647 135.780222,15.1469186 C134.334774,16.618276 133.601732,18.6542715 133.601732,21.1991131 C133.601732,23.6160814 134.317204,25.5602443 135.728329,26.9766244 C137.139455,28.3936154 139.059909,29.1113756 141.435757,29.1113756 C143.911713,29.1113756 145.899996,28.3551312 147.345853,26.8636154 C148.791506,25.3735249 149.523935,23.3568733 149.523935,20.8714887 C149.523935,18.4166471 148.836657,16.4580271 147.48049,15.0510136 C146.123709,13.6433891 144.215308,12.929905 141.809428,12.929905 L141.809428,12.929905 Z M127.654758,12.9298235 C125.91736,12.9298235 124.480288,13.3726968 123.38236,14.2460226 C122.277894,15.1244389 121.717693,16.276724 121.717693,17.6709095 C121.717693,18.3955928 121.838641,19.0394389 122.076655,19.5853439 C122.316099,20.1332851 122.686706,20.615457 123.178873,21.0202534 C123.667567,21.4217919 124.421448,21.8424706 125.420902,22.270276 C126.260794,22.6148009 126.887393,22.9063846 127.285377,23.1360679 C127.674371,23.3610679 127.95059,23.5874932 128.106473,23.80781 C128.257862,24.0234434 128.334885,24.3184887 128.334885,24.6829683 C128.334885,25.7200045 127.555671,26.2245747 125.952091,26.2245747 C125.357363,26.2245747 124.678871,26.1009774 123.935614,25.8568371 C123.191949,25.6131041 122.497112,25.2626742 121.870717,24.8132851 L121.717693,24.7039412 L121.717693,28.2430588 L121.773877,28.2691222 C122.295873,28.50919 122.95373,28.7115882 123.729267,28.8710226 C124.503374,29.030457 125.206587,29.1117014 125.817659,29.1117014 C127.702974,29.1117014 129.221154,28.6665882 130.328889,27.7881719 C131.443774,26.9036471 132.008878,25.7242805 132.008878,24.2816335 C132.008878,23.2411357 131.70467,22.3486697 131.105038,21.6290769 C130.509698,20.9151855 129.47633,20.2599367 128.034763,19.680638 C126.886372,19.2212715 126.150674,18.8398914 125.847283,18.5472896 C125.554721,18.2644615 125.406192,17.864552 125.406192,17.3581493 C125.406192,16.9091674 125.589452,16.5495747 125.965984,16.2581946 C126.345376,15.9653891 126.873296,15.816543 127.535649,15.816543 C128.150194,15.816543 128.779041,15.9132624 129.40421,16.1028326 C130.029175,16.2924027 130.577935,16.5463167 131.036188,16.8570407 L131.18676,16.9596652 L131.18676,13.6023801 L131.128942,13.5775385 C130.706238,13.3969276 130.148897,13.2423801 129.472039,13.1169502 C128.797837,12.9927421 128.186356,12.9298235 127.654758,12.9298235 L127.654758,12.9298235 Z M112.101936,26.1057421 C110.763543,26.1057421 109.707702,25.663276 108.964036,24.7917828 C108.215468,23.91581 107.836893,22.6674163 107.836893,21.0804027 C107.836893,19.4435023 108.215876,18.1623258 108.964854,17.2708778 C109.708519,16.3853348 110.753736,15.9359457 112.072312,15.9359457 C113.350845,15.9359457 114.36889,16.3651765 115.098254,17.2124389 C115.831296,18.0639774 116.203128,19.3349729 116.203128,20.9910136 C116.203128,22.6674163 115.853156,23.9551086 115.163427,24.8164208 C114.478601,25.6714208 113.449115,26.1057421 112.101936,26.1057421 L112.101936,26.1057421 Z M112.266605,12.929905 C109.711788,12.929905 107.683052,13.6757647 106.237399,15.1469186 C104.791951,16.618276 104.058501,18.6542715 104.058501,21.1991131 C104.058501,23.6170995 104.774381,25.5602443 106.185506,26.9766244 C107.596632,28.3936154 109.516882,29.1113756 111.892934,29.1113756 C114.368277,29.1113756 116.357173,28.3551312 117.80303,26.8636154 C119.248275,25.3735249 119.981112,23.3568733 119.981112,20.8714887 C119.981112,18.4166471 119.29363,16.4580271 117.937258,15.0510136 C116.580069,13.6433891 114.672077,12.929905 112.266605,12.929905 L112.266605,12.929905 Z M98.4594768,15.9751629 L98.4594768,13.3018371 L94.8159251,13.3018371 L94.8159251,28.7388733 L98.4594768,28.7388733 L98.4594768,20.8422896 C98.4594768,19.4994163 98.7649108,18.3964072 99.3676067,17.5631946 C99.9627433,16.7399593 100.75585,16.3227421 101.724045,16.3227421 C102.052157,16.3227421 102.420516,16.3767014 102.819522,16.4833982 C103.214441,16.5894842 103.500466,16.7045294 103.669221,16.8256833 L103.822244,16.9362489 L103.822244,13.2753665 L103.7632,13.2501176 C103.423852,13.106362 102.943942,13.0338733 102.336548,13.0338733 C101.421063,13.0338733 100.601601,13.327086 99.8998177,13.9043484 C99.2838421,14.4117692 98.8384601,15.1075385 98.4980902,15.9751629 L98.4594768,15.9751629 L98.4594768,15.9751629 Z M88.2911816,12.9298235 C86.6197732,12.9298235 85.128765,13.2871765 83.8604478,13.9912941 C82.5896789,14.6970407 81.6069782,15.7047557 80.9382923,16.9861357 C80.2726709,18.2644615 79.9347527,19.7576063 79.9347527,21.4226063 C79.9347527,22.8811357 80.2624558,24.219733 80.9100984,25.3993032 C81.5581497,26.5809095 82.4754732,27.5053439 83.6365309,28.146543 C84.7959543,28.7869276 86.1359821,29.1117014 87.6196354,29.1117014 C89.351109,29.1117014 90.8294504,28.7665656 92.0148204,28.0862715 L92.0626274,28.0587828 L92.0626274,24.7320407 L91.909604,24.8434208 C91.3726939,25.2331493 90.772654,25.5442805 90.1270544,25.7684661 C89.4830892,25.992448 88.8959205,26.1056606 88.3812795,26.1056606 C86.9515624,26.1056606 85.8039886,25.659733 84.9708382,24.7809095 C84.1358491,23.9006606 83.7125319,22.6648914 83.7125319,21.1096425 C83.7125319,19.5446199 84.1540322,18.277086 85.0241615,17.3416561 C85.8914306,16.4090769 87.0412517,15.9360679 88.4413448,15.9360679 C89.6389729,15.9360679 90.8059555,16.3402534 91.9100126,17.1384434 L92.0626274,17.249009 L92.0626274,13.7436923 L92.0133902,13.716 C91.5978366,13.4842805 91.0313025,13.2928778 90.3276806,13.1476968 C89.6273276,13.0029231 88.9422974,12.9298235 88.2911816,12.9298235 L88.2911816,12.9298235 Z M77.4253723,13.3018778 L73.7818206,13.3018778 L73.7818206,28.738914 L77.4253723,28.738914 L77.4253723,13.3018778 L77.4253723,13.3018778 Z M75.6407797,6.72556561 C75.0411485,6.72556561 74.518131,6.9289819 74.0884804,7.33214932 C73.6569911,7.73653846 73.4379775,8.24558824 73.4379775,8.84626697 C73.4379775,9.43757919 73.6543351,9.93726244 74.0815341,10.3308597 C74.5060771,10.7232353 75.030729,10.9221719 75.6407797,10.9221719 C76.2506262,10.9221719 76.7773211,10.7232353 77.2069717,10.3314706 C77.6394826,9.93726244 77.8587004,9.43757919 77.8587004,8.84626697 C77.8587004,8.26656109 77.6454074,7.76260181 77.2247461,7.34843891 C76.8046978,6.9350905 76.2716695,6.72556561 75.6407797,6.72556561 L75.6407797,6.72556561 Z M66.550103,12.1629502 L66.550103,28.7388326 L70.2684299,28.7388326 L70.2684299,7.19828959 L65.1222246,7.19828959 L58.5808296,23.1979276 L52.2329101,7.19828959 L46.8770892,7.19828959 L46.8770892,28.7388326 L50.371295,28.7388326 L50.371295,12.1613213 L50.4914256,12.1613213 L57.1946291,28.7388326 L59.8315767,28.7388326 L66.4301768,12.1629502 L66.550103,12.1629502 L66.550103,12.1629502 Z" id="path5056" fill="#706D6E"></path>
                        <path d="M17.1398525,17.0824887 L0,17.0824887 L0,0 L17.1398525,0 L17.1398525,17.0824887 L17.1398525,17.0824887 Z" id="path5058" fill="#F1511B"></path>
                        <path d="M36.0642976,17.0824887 L18.9246494,17.0824887 L18.9246494,0 L36.0642976,0 L36.0642976,17.0824887 L36.0642976,17.0824887 Z" id="path5060" fill="#80CC28"></path>
                        <path d="M17.1394439,35.9503167 L0,35.9503167 L0,18.8678281 L17.1394439,18.8678281 L17.1394439,35.9503167 L17.1394439,35.9503167 Z" id="path5062" fill="#00ADEF"></path>
                        <path d="M36.0642976,35.9503167 L18.9246494,35.9503167 L18.9246494,18.8678281 L36.0642976,18.8678281 L36.0642976,35.9503167 L36.0642976,35.9503167 Z" id="path5064" fill="#FBBC09"></path>
                    </g>
                </g>
            </g>
        </g>
    </g>
</svg>