<?xml version="1.0" encoding="UTF-8" standalone="no"?>
<svg width="143px" height="25px" viewBox="0 0 143 25" version="1.1" xmlns="http://www.w3.org/2000/svg" xmlns:xlink="http://www.w3.org/1999/xlink" xmlns:sketch="http://www.bohemiancoding.com/sketch/ns">
    <title>sony</title>
    <description>Created with Sketch (http://www.bohemiancoding.com/sketch)</description>
    <defs></defs>
    <g id="Page-1" stroke="none" stroke-width="1" fill="none" fill-rule="evenodd" sketch:type="MSPage">
        <g id="Article" sketch:type="MSArtboardGroup" transform="translate(-392.000000, -307.000000)" fill="#000000">
            <g id="Home" sketch:type="MSLayerGroup" transform="translate(-25.000000, 164.000000)">
                <g id="Clients-SVG" transform="translate(225.000000, 125.000000)" sketch:type="MSShapeGroup">
                    <g id="Group" transform="translate(192.000000, 19.000000)">
                        <path d="M24.944106,1.0472 L27.6719797,1.0472 L27.6719797,8.2544 L24.944106,8.2544 C23.5857755,3.7864 16.82696,3.1176 12.5901861,3.1176 C8.8836097,3.1176 6.11489002,4.0912 6.11489002,5.9712 C6.11489002,8.1448 11.3287648,8.2056 15.5447152,8.776 C20.9724309,9.5104 28.8901523,9.3848 28.8901523,16.4712 C28.8901523,22.064 21.4537733,23.9616 16.7965257,23.972 C8.45993232,23.9904 5.87221658,21.5912 3.96446701,21.5912 C3.4358714,21.5912 3.16276368,22.1024 3.16276368,23.124 L0.436491822,23.124 L0.436491822,15.0376 L3.16276368,15.0376 C4.18711788,19.912 11.6907727,20.9744 14.8519346,20.9744 C17.0936605,20.9744 22.8601579,20.5352 22.8601579,17.8736 C22.8601579,15.3512 19.1599887,15.4824 14.6637225,14.8416 C9.73657078,14.1384 0.0192216582,13.9848 0.0192216582,7.4392 C0.0192216582,2.3896 5.68400451,-0.028 12.0407671,-0.028 C19.4242865,-0.028 23.0747998,2.3672 24.1696334,2.3672 C24.6854146,2.3672 24.944106,1.8928 24.944106,1.0472 L24.944106,1.0472 Z" id="Shape"></path>
                        <path d="M50.5285336,-0.028 C40.5300677,-0.028 33.9098082,5.1128 33.9098082,11.972 C33.9098082,18.8312 40.5308686,23.972 50.5285336,23.972 C60.5261985,23.972 67.1472589,18.8312 67.1472589,11.972 C67.1472589,5.1128 60.5269193,-0.028 50.5285336,-0.028 L50.5285336,-0.028 Z M50.5285336,3.172 C56.2622741,3.172 60.0592724,6.9416 60.0592724,11.972 C60.0592724,17.0016 56.2622741,20.772 50.5285336,20.772 C44.7944726,20.772 40.9977947,17.0016 40.9977947,11.972 C40.9977947,6.9416 44.7948731,3.172 50.5285336,3.172 L50.5285336,3.172 Z" id="Shape"></path>
                        <path d="M100.634191,22.6416 L96.2380372,22.6416 L78.691066,7.6464 L78.691066,18.7968 C78.691066,19.5448 79.0658883,19.9184 79.8139312,19.9184 L83.0223463,19.9184 L83.0223463,22.6416 L69.9019628,22.6416 L69.9019628,19.9184 L73.1103779,19.9184 C73.8584208,19.9184 74.2332431,19.5448 74.2332431,18.7968 L74.2332431,5.1464 C74.2332431,4.3992 73.8584208,4.0248 73.1103779,4.0248 L69.9019628,4.0248 L69.9019628,1.3016 L80.9047603,1.3016 L96.1747659,14.3424 L96.1747659,5.1464 C96.1747659,4.3992 95.8007445,4.0248 95.0519007,4.0248 L91.8434856,4.0248 L91.8434856,1.3016 L104.963869,1.3016 L104.963869,4.0248 L101.757056,4.0248 C101.008212,4.0248 100.634191,4.3992 100.634191,5.1464 L100.634191,22.6416 L100.634191,22.6416 Z" id="Shape"></path>
                        <path d="M129.123091,1.3016 L142.016018,1.3016 L142.016018,4.0248 L139.485166,4.0248 C138.411957,4.0248 137.514946,4.3992 136.794134,5.1464 L128.161207,14.3424 L128.161207,18.7968 C128.161207,19.5448 128.535228,19.9184 129.284072,19.9184 L132.491686,19.9184 L132.491686,22.6416 L116.933356,22.6416 L116.933356,19.9184 L120.14097,19.9184 C120.889814,19.9184 121.263835,19.5448 121.263835,18.7968 L121.263835,14.6312 L112.409859,5.1464 C111.68344,4.3992 110.784828,4.0248 109.716424,4.0248 L107.181568,4.0248 L107.181568,1.3016 L123.028223,1.3016 L123.028223,4.0248 L121.456853,4.0248 C121.071619,4.0248 120.825742,4.1584 120.718421,4.4256 C120.611901,4.6928 120.654349,4.9328 120.847366,5.1464 L126.075657,10.7216 L131.304749,5.1464 C131.496966,4.9328 131.540214,4.6928 131.432893,4.4256 C131.326373,4.1584 131.080496,4.0248 130.695262,4.0248 L129.123091,4.0248 L129.123091,1.3016 L129.123091,1.3016 Z" id="Shape"></path>
                    </g>
                </g>
            </g>
        </g>
    </g>
</svg>