<?xml version="1.0" encoding="UTF-8" standalone="no"?>
<svg width="169px" height="64px" viewBox="0 0 169 64" version="1.1" xmlns="http://www.w3.org/2000/svg" xmlns:xlink="http://www.w3.org/1999/xlink" xmlns:sketch="http://www.bohemiancoding.com/sketch/ns">
    <title>universal-music</title>
    <description>Created with Sketch (http://www.bohemiancoding.com/sketch)</description>
    <defs></defs>
    <g id="Page-1" stroke="none" stroke-width="1" fill="none" fill-rule="evenodd" sketch:type="MSPage">
        <g id="Article" sketch:type="MSArtboardGroup" transform="translate(-653.000000, -289.000000)" fill="#231F20">
            <g id="Home" sketch:type="MSLayerGroup" transform="translate(-25.000000, 164.000000)">
                <g id="Clients-SVG" transform="translate(225.000000, 125.000000)" sketch:type="MSShapeGroup">
                    <g id="Universal_Music_Group" transform="translate(454.000000, 0.000000)">
                        <g id="layer1" transform="translate(0.155404, -0.094166)">
                            <g id="g3134">
                                <g id="g3229" transform="translate(85.543920, 15.152893) scale(1, -1) translate(-85.543920, -15.152893) translate(83.743607, 14.253220)">
                                    <path d="M8.90468255e-14,1.79934626 C0.140424442,2.00986978 0.565298394,1.86952077 0.864150411,1.86232338 C1.26562029,1.85332665 1.17020368,1.25954238 1.72650051,1.37649989 C2.28099702,1.49525674 2.28819828,0.849291436 3.08033615,0.872682937 C3.87607465,0.897873785 2.92190858,0.595583613 2.92190858,0.595583613 C2.92190858,0.595583613 2.43042303,0.83309732 2.11356788,0.672955502 C1.94433842,0.588386228 2.17477853,0.721537851 1.89212934,0.951854173 C1.4564535,1.30812473 1.51586385,0.885278361 0.784936623,1.50605282 C0.266446377,1.94509331 -0.23044011,1.45387178 8.90468255e-14,1.79934626" id="path3231"></path>
                                </g>
                                <g id="g3233" transform="translate(81.376195, 9.673884) scale(1, -1) translate(-81.376195, -9.673884) translate(72.374628, 2.476499)">
                                    <path d="M5.40094007,1.79934626 C4.93105828,2.55867039 5.28211939,3.50332717 5.81501214,4.42279311 C6.20568014,5.09934731 7.2516622,5.39803879 8.16082044,5.04356757 C9.18159811,5.84787535 9.42644073,4.9823898 10.330198,5.37284794 C11.5184049,5.88746097 10.8540892,4.00714413 12.0026891,3.53391606 C12.4779719,4.80065583 10.9207008,5.75251 11.8964707,6.34809361 C12.5949922,6.77453868 13.1224841,7.03904258 13.4087339,7.607636 C13.8156047,8.42094051 13.9740323,9.01472477 14.2890871,9.1208862 C15.0128131,9.36919599 14.8561858,10.0565463 14.8561858,10.0565463 C14.8561858,10.0565463 15.6285202,9.83162798 16.2262243,10.393024 C15.7689447,10.6413338 15.0992281,10.8518573 15.2774591,11.3448782 C15.4844952,11.9242677 17.0363653,10.7456959 17.4954452,11.6975501 C16.5718844,12.0988043 15.6285202,12.9732866 15.0650222,13.1748133 C14.6797551,12.751967 14.4367128,12.9211055 13.938026,13.3151623 C13.093679,13.9827198 13.0234668,13.3493499 12.4941747,13.8063839 C12.0747017,12.9624905 12.7102123,13.0290663 12.9028458,12.8185428 C13.4447401,12.2229592 12.3537502,13.3493499 12.4599687,11.8378991 C12.4869734,11.4456416 11.9072725,11.3718684 11.4751973,12.2229592 C11.2501582,12.6673977 9.45704606,12.575631 9.18519874,12.9984774 C9.43364198,13.4914983 11.5454096,15.2494596 14.7841733,14.8266132 C10.0763539,16.6763412 3.71764708,14.6574747 3.6528358,13.9557296 C3.0191255,13.5580741 3.23696341,13.1028395 2.92010826,12.9984774 C2.37101269,12.8149441 1.77510897,11.1415521 1.77510897,11.1415521 C1.77510897,11.1415521 2.11536819,10.9148344 1.051383,9.7236672 C0.174630396,8.74302349 -0.0846147277,7.25676348 -0.0846147277,7.25676348 C-0.0846147277,7.25676348 0.495086173,6.19694853 0.383466745,4.97699176 C0.302452644,4.0449304 0.26284575,4.73587936 0.667916255,4.06112451 C0.903757305,3.66526834 1.16120211,2.2869691 1.31782938,2.82497363 C1.61668139,3.850601 0.77233443,4.80065583 0.912758871,5.82088516 C0.945164512,5.69313157 1.23681528,6.22573807 1.2260134,5.74351327 C1.19540807,4.48397089 2.77788351,2.05485343 2.77788351,2.05485343 C2.77788351,2.05485343 2.18738073,1.45387178 2.80668852,1.45387178 L2.64826095,1.0814071 C2.64826095,1.0814071 3.10734085,1.1083973 3.40259224,0.867284898 C3.69964395,0.624373153 3.95528844,0.325681673 4.22533545,0.325681673 L8.77832792,0.325681673 C8.77832792,0.325681673 9.10238433,1.70578026 9.36703039,1.94149462 C9.63167645,2.17540963 8.83773826,1.94149462 8.60369753,2.17540963 C8.36785648,2.41112399 8.22023078,1.97028416 8.10321041,1.73636914 C7.98438973,1.50065478 7.83856435,1.08860449 7.48570293,0.971646982 C7.13284152,0.854689475 6.28309361,0.795311048 6.1066629,0.795311048 C5.93023219,0.795311048 5.40094007,1.79934626 5.40094007,1.79934626" id="path3235"></path>
                                </g>
                                <g id="g3237" transform="translate(92.806373, 34.346519) scale(1, -1) translate(-92.806373, -34.346519) translate(86.505276, 28.048807)">
                                    <path d="M12.6021935,10.7960776 C12.4257628,11.0299926 12.6309985,11.3844638 12.6309985,11.3844638 L-0.207036036,11.3844638 L1.22421308,10.1357175 C1.53746761,10.0097633 1.93353654,9.69487766 2.11536819,9.21445221 C2.54384277,8.07906472 1.90653184,8.99853066 1.90653184,7.28195432 C1.90653184,5.70392765 1.46185444,5.95943482 1.46185444,5.95943482 C1.46185444,5.95943482 1.36643784,4.09351275 0.399669565,2.94732918 C-0.214237289,2.33015341 0.26284575,1.81913907 0.26284575,1.81913907 C0.26284575,1.81913907 0.055809714,1.70218156 -0.244842616,0.349073175 C-0.343859851,-0.0881679669 0.217837916,-0.764722162 0.703922522,-0.595583613 C1.06938613,-0.467830028 -0.181831649,-0.347273829 1.17560462,0.223118937 C1.69769549,0.444438527 1.27102123,0.860087513 1.27102123,0.860087513 C1.27102123,0.860087513 2.14777383,0.928462671 2.64286001,2.25458087 C3.5178123,2.12682728 3.19375589,2.66303247 4.99406925,3.05169126 C5.46935197,3.15245465 5.57016952,3.29640235 5.51075918,3.74264023 C5.45134884,4.19067745 6.09766134,3.67786376 7.88177187,5.49700283 C9.28601629,6.9310818 8.78012824,7.25496413 9.75229745,7.7749752 C10.7802764,8.32197646 10.8738927,7.7281922 11.2177525,8.17263072 C12.0026891,9.1946594 11.7272412,9.12808359 12.0530979,9.77944694 L12.2853383,10.1375168 C12.2853383,10.1375168 12.7768239,10.5621626 12.6021935,10.7960776" id="path3239"></path>
                                </g>
                                <g id="g3241" transform="translate(91.034877, 15.257253) scale(1, -1) translate(-91.034877, -15.257253) translate(90.134721, 14.357580)">
                                    <path d="M-1.11299858e-13,-9.82269821e-14 L-0.286249824,-0.170937895 L-0.343859851,0.113358815 L-1.11299858e-13,-9.82269821e-14 L-1.11299858e-13,-9.82269821e-14 Z" id="path3243"></path>
                                </g>
                                <g id="g3245" transform="translate(88.208386, 15.030538) scale(1, -1) translate(-88.208386, -15.030538) translate(87.308230, 14.130865)">
                                    <path d="M1.80031336,8.16013923e-15 C1.34123345,-0.0989640444 0.856949157,8.16013923e-15 0.430274892,-0.34187579 L0.144025068,-0.113358815 L-0.0270047003,-0.113358815 C0.372664865,0.214122205 -0.255644497,0.555997995 0.430274892,0.570392765 C0.957766705,0.555997995 1.34123345,0.187132011 1.80031336,8.16013923e-15" id="path3247"></path>
                                </g>
                                <g id="g3249" transform="translate(83.133304, 23.536047) scale(1, -1) translate(-83.133304, -23.536047) translate(61.529544, 0.144546)">
                                    <path d="M0,30.5888865 C2.9651161,39.7547563 9.98453787,46.8333845 21.7153797,46.8333845 C32.6162771,46.8333845 40.6258712,39.6575916 43.5315769,30.389159 C40.4998493,39.0278204 31.8853498,45.2589565 21.7315825,45.2589565 C11.6534284,45.2589565 3.09293835,39.1231858 0,30.5888865 M43.4829685,16.5683804 C40.5322549,7.37911902 32.2328103,0.230316322 21.7153797,0.230316322 C10.5588378,0.230316322 3.06233302,7.28195432 0.0468081473,16.3686529 C3.18475433,7.90452813 11.7056374,1.83353384 21.7315825,1.83353384 C31.8313404,1.83353384 40.4098336,7.99989348 43.4829685,16.5683804" id="path3251"></path>
                                </g>
                                <g id="g3253" transform="translate(39.504507, 23.080810) scale(1, -1) translate(-39.504507, -23.080810) translate(35.003724, 18.582445)">
                                    <path d="M9.00156678,8.99673131 L5.42434414,8.99673131 L5.95903721,8.36156208 L5.95903721,3.66526834 C5.95903721,2.61085143 5.26051563,2.1664129 4.21453357,2.1664129 C3.17215213,2.1664129 2.47183024,2.61085143 2.47183024,3.66526834 L2.47183024,8.36156208 L3.0065233,8.99673131 L-0.570699334,8.99673131 L-0.0360062671,8.36156208 L-0.0360062671,3.58969579 C-0.0360062671,1.24874631 1.27462186,0.345474482 4.21453357,0.345474482 C7.15444528,0.345474482 8.4650734,1.24874631 8.4650734,3.58969579 L8.4650734,8.36156208 L9.00156678,8.99673131" id="path3255"></path>
                                </g>
                                <g id="g3257" transform="translate(51.919468, 23.080810) scale(1, -1) translate(-51.919468, -23.080810) translate(47.418685, 18.582445)">
                                    <path d="M9.00156678,8.99673131 L5.98424159,8.99673131 L6.51713435,8.36156208 L6.51713435,4.08631536 L2.19098135,8.99673131 L-0.52029056,8.99673131 L0.0144025068,8.36156208 L0.0144025068,1.14798292 L-0.52029056,0.511014339 L2.49703462,0.511014339 L1.96234156,1.14798292 L1.96234156,5.49880218 L6.55674124,0.511014339 L8.46687371,0.511014339 L8.46687371,8.36156208 L9.00156678,8.99673131 L9.00156678,8.99673131 Z" id="path3259"></path>
                                </g>
                                <g id="g3261" transform="translate(61.570949, 22.569798) scale(1, -1) translate(-61.570949, -22.569798) translate(59.770636, 18.071433)">
                                    <path d="M3.60062671,0 L3.06593364,0.635169231 L3.06593364,7.8487484 L3.60062671,8.48571697 L-0.00180031336,8.48571697 L0.534693067,7.8487484 L0.534693067,0.635169231 L-0.00180031336,0 L3.60062671,0 L3.60062671,0 Z" id="path3263"></path>
                                </g>
                                <g id="g3265" transform="translate(70.748946, 23.080810) scale(1, -1) translate(-70.748946, -23.080810) translate(66.248162, 18.582445)">
                                    <path d="M9.00156678,8.99673131 L5.9716394,8.99673131 L6.50633247,8.36156208 L4.3675602,3.69225853 L2.30620141,8.36156208 L2.84089448,8.99673131 L-0.721925656,8.99673131 L3.2351631,0.511014339 L5.00487113,0.511014339 L9.00156678,8.99673131 L9.00156678,8.99673131 Z" id="path3267"></path>
                                </g>
                                <g id="g3269" transform="translate(81.766864, 22.569798) scale(1, -1) translate(-81.766864, -22.569798) translate(78.166237, 18.071433)">
                                    <path d="M7.20125342,0 L7.20125342,2.30316322 L6.5639425,1.76875738 L2.22338699,1.76875738 L2.22338699,3.39716574 L4.9742658,3.39716574 L5.59717422,2.86096056 L5.59717422,5.62295707 L4.9742658,5.08855123 L2.22338699,5.08855123 L2.22338699,6.7169596 L6.5639425,6.7169596 L7.20125342,6.18255376 L7.20125342,8.48571697 L-0.792137877,8.48571697 L-0.259245123,7.8487484 L-0.259245123,0.635169231 L-0.792137877,0 L7.20125342,0 L7.20125342,0 Z" id="path3271"></path>
                                </g>
                                <g id="g3273" transform="translate(93.708342, 22.229720) scale(1, -1) translate(-93.708342, -22.229720) translate(89.207558, 17.731354)">
                                    <path d="M5.40094007,5.39803879 C5.40094007,4.7880604 4.81583823,4.29144084 4.00029628,4.29144084 L2.3854152,4.29144084 L2.3854152,6.37688315 L4.30634955,6.37688315 C4.866247,6.37688315 5.40094007,6.09798448 5.40094007,5.39803879 M8.32824958,-0.340076444 L6.0256488,3.0067076 C7.1580459,3.46374156 7.94838347,4.34182253 7.94838347,5.57617407 C7.94838347,6.98866088 7.08243274,8.14564053 4.66281159,8.14564053 L-0.631909988,8.14564053 L-0.0972169212,7.50867195 L-0.0972169212,0.296892133 L-0.631909988,-0.340076444 L2.91830795,-0.340076444 L2.3854152,0.296892133 L2.3854152,2.70081874 L3.45480133,2.70081874 L5.0822846,0.296892133 L4.54939185,-0.340076444 L8.32824958,-0.340076444" id="path3275"></path>
                                </g>
                                <g id="g3277" transform="translate(104.688441, 23.687191) scale(1, -1) translate(-104.688441, -23.687191) translate(101.087815, 19.188825)">
                                    <path d="M7.20125342,3.59869252 C7.20125342,4.94640288 6.11746478,5.69852961 4.55299248,6.20774461 C3.53401512,6.52442955 2.09556475,6.75294652 2.09556475,7.42770137 C2.09556475,7.75878108 2.48983337,7.98729806 3.17755307,7.98729806 C4.09571288,7.98729806 5.59537391,7.60583665 6.7673779,7.04623996 L6.7673779,9.88380902 L6.0922604,9.23424502 C5.37933631,9.52753846 4.14432134,9.83342732 3.29277313,9.83342732 C0.403270192,9.83342732 -0.5256915,8.56128952 -0.5256915,7.40251052 C-0.5256915,5.82448385 0.518490246,5.13713358 2.16037603,4.56494147 C3.38098848,4.14569379 4.5151859,4.10790752 4.5151859,3.40976117 C4.5151859,2.80877952 3.814864,2.73320697 3.45660164,2.73320697 C2.55464465,2.73320697 0.950565452,3.05169126 -0.475282726,3.98015393 L-0.475282726,0.838495358 L0.199834782,1.57622733 C0.862350097,1.3225195 2.35120924,0.888877054 3.5718217,0.888877054 C6.08145852,0.888877054 7.20125342,1.99547501 7.20125342,3.59869252" id="path3279"></path>
                                </g>
                                <g id="g3281" transform="translate(115.099652, 23.114998) scale(1, -1) translate(-115.099652, -23.114998) translate(109.698712, 18.616632)">
                                    <path d="M7.20125342,3.59869252 L4.38916396,3.59869252 L5.78980775,6.63778836 L7.20125342,3.59869252 L7.20125342,3.59869252 Z M11.2861644,0.545201918 L7.10943744,9.03091889 L4.24693921,9.03091889 L4.55119216,8.39395031 L0.77233443,0.545201918 L3.88867685,0.545201918 L3.3557841,1.18217049 L3.77525711,2.07284689 L7.82236153,2.07284689 L8.23283298,1.18217049 L7.6963396,0.545201918 L11.2861644,0.545201918 L11.2861644,0.545201918 Z" id="path3283"></path>
                                </g>
                                <g id="g3285" transform="translate(127.444403, 22.569798) scale(1, -1) translate(-127.444403, -22.569798) translate(123.843776, 18.071433)">
                                    <path d="M7.20125342,0 L7.20125342,2.30316322 L6.5639425,1.76875738 L2.47723118,1.76875738 L2.47723118,7.8487484 L3.01192424,8.48571697 L-0.540094007,8.48571697 L-0.00360062671,7.8487484 L-0.00360062671,0.635169231 L-0.540094007,0 L7.20125342,0 L7.20125342,0 Z" id="path3287"></path>
                                </g>
                                <g id="g3289" transform="translate(131.054027, 20.417781) scale(1, -1) translate(-131.054027, -20.417781) translate(129.253714, 18.618435)">
                                    <path d="M0,1.79934626 C0,2.73320697 0.759732236,3.49073175 1.69409487,3.49073175 C2.6284575,3.49073175 3.38818974,2.73320697 3.38818974,1.79934626 C3.38818974,0.865485552 2.6284575,0.107960776 1.69409487,0.107960776 C0.759732236,0.107960776 0,0.865485552 0,1.79934626 M0.160227889,1.79934626 C0.160227889,0.953653519 0.844346964,0.264503901 1.69409487,0.264503901 C2.54204246,0.264503901 3.22976216,0.953653519 3.22976216,1.79934626 C3.22976216,2.64683835 2.54204246,3.33418862 1.69409487,3.33418862 C0.844346964,3.33418862 0.160227889,2.64683835 0.160227889,1.79934626" id="path3291"></path>
                                </g>
                                <g id="g3293" transform="translate(130.684964, 20.655295) scale(1, -1) translate(-130.684964, -20.655295) translate(129.784807, 19.755622)">
                                    <path d="M1.80031336,1.79934626 C1.63288421,1.94149462 1.43124912,2.00807043 1.2134112,2.00807043 C0.714724402,2.00807043 0.343859851,1.62121098 0.343859851,1.1317888 C0.343859851,0.638767923 0.707523149,0.25010913 1.20981058,0.25010913 C1.43484974,0.25010913 1.64908703,0.332879059 1.82191712,0.482224798 L1.82191712,0.703544389 C1.66528985,0.518211724 1.442051,0.403053563 1.20080901,0.403053563 C0.802939757,0.403053563 0.50948868,0.748528045 0.50948868,1.1317888 C0.50948868,1.51504955 0.806540383,1.85332665 1.20440964,1.85332665 C1.44385131,1.85332665 1.64188578,1.75436261 1.80031336,1.57982602 L1.80031336,1.79934626" id="path3295"></path>
                                </g>
                                <g id="g3297" transform="translate(3.721479, 60.555798) scale(1, -1) translate(-3.721479, -60.555798) translate(0.120852, 57.856779)">
                                    <path d="M5.40094007,5.39803879 L5.40094007,2.18620571 C5.40094007,0.609978383 4.51878652,0.00179934626 2.53844183,0.00179934626 C0.559897454,0.00179934626 -0.324056404,0.609978383 -0.324056404,2.18620571 L-0.324056404,5.39803879 L-0.684119075,5.8262832 L1.72470019,5.8262832 L1.36463752,5.39803879 L1.36463752,2.23838675 C1.36463752,1.52764498 1.83631962,1.22715415 2.53844183,1.22715415 C3.24236435,1.22715415 3.71224614,1.52764498 3.71224614,2.23838675 L3.71224614,5.39803879 L3.35218347,5.8262832 L5.76100274,5.8262832 L5.40094007,5.39803879" id="path3299"></path>
                                </g>
                                <g id="g3301" transform="translate(12.958889, 60.555798) scale(1, -1) translate(-12.958889, -60.555798) translate(9.358263, 57.856779)">
                                    <path d="M5.40094007,5.39803879 L5.40094007,0.113358815 L4.11551633,0.113358815 L1.02257799,3.47093894 L1.02257799,0.541603225 L1.38264066,0.113358815 L-0.649913121,0.113358815 L-0.28985045,0.541603225 L-0.28985045,5.39803879 L-0.649913121,5.8262832 L1.17560462,5.8262832 L4.09031194,2.52088411 L4.09031194,5.39803879 L3.73024927,5.8262832 L5.76100274,5.8262832 L5.40094007,5.39803879 L5.40094007,5.39803879 Z" id="path3303"></path>
                                </g>
                                <g id="g3305" transform="translate(19.146563, 60.442439) scale(1, -1) translate(-19.146563, -60.442439) translate(18.246406, 57.743420)">
                                    <path d="M0,0 L0.360062671,0.42824441 L0.360062671,5.28467997 L0,5.71292438 L2.42502209,5.71292438 L2.06495942,5.28467997 L2.06495942,0.42824441 L2.42502209,0 L0,0 L0,0 Z" id="path3307"></path>
                                </g>
                                <g id="g3309" transform="translate(26.884312, 60.442439) scale(1, -1) translate(-26.884312, -60.442439) translate(23.283685, 57.743420)">
                                    <path d="M3.60062671,0 L2.40881927,0 L-0.255644497,5.71292438 L2.14417321,5.71292438 L1.78411054,5.28467997 L3.17215213,2.14122205 L4.61240282,5.28467997 L4.25234015,5.71292438 L6.29209518,5.71292438 L3.60062671,0 L3.60062671,0 Z" id="path3311"></path>
                                </g>
                                <g id="g3313" transform="translate(34.589653, 60.442439) scale(1, -1) translate(-34.589653, -60.442439) translate(31.889183, 57.743420)">
                                    <path d="M0,0 L0.360062671,0.42824441 L0.360062671,5.28467997 L0,5.71292438 L5.38113662,5.71292438 L5.38113662,4.1618879 L4.95266204,4.52175716 L2.03075347,4.52175716 L2.03075347,3.42595528 L3.8814756,3.42595528 L4.30094861,3.78582454 L4.30094861,1.92709985 L3.8814756,2.2869691 L2.03075347,2.2869691 L2.03075347,1.19116723 L4.95266204,1.19116723 L5.38113662,1.55103648 L5.38113662,0 L0,0 L0,0 Z" id="path3315"></path>
                                </g>
                                <g id="g3317" transform="translate(42.737870, 61.318719) scale(1, -1) translate(-42.737870, -61.318719) translate(40.037400, 58.619699)">
                                    <path d="M3.60062671,5.39803879 L2.30620141,5.39803879 L2.30620141,3.9945487 L3.39539099,3.9945487 C3.94268625,3.9945487 4.33695487,4.32742776 4.33695487,4.73947806 C4.33695487,5.21090678 3.9768922,5.39803879 3.60062671,5.39803879 M3.76265491,0.87628163 L4.12271758,1.30452604 L3.02632675,2.92393768 L2.30620141,2.92393768 L2.30620141,1.30452604 L2.66626408,0.87628163 L0.275447943,0.87628163 L0.635510615,1.30452604 L0.635510615,6.1609616 L0.275447943,6.58920601 L3.84006839,6.58920601 C5.46935197,6.58920601 6.05085319,5.81008908 6.05085319,4.85823491 C6.05085319,4.02873628 5.51976075,3.43675136 4.7582282,3.12906315 L6.308298,0.87628163 L3.76265491,0.87628163" id="path3319"></path>
                                </g>
                                <g id="g3321" transform="translate(51.118329, 60.597180) scale(1, -1) translate(-51.118329, -60.597180) translate(48.417859, 57.898161)">
                                    <path d="M3.60062671,-1.92831862e-14 C2.77788351,-1.92831862e-14 1.77510897,0.291494095 1.33043157,0.462431989 L0.874952291,-0.034187579 L0.874952291,2.08184363 C1.83451931,1.45567113 2.91470732,1.24154892 3.52321324,1.24154892 C3.76265491,1.24154892 4.23433701,1.29372996 4.23433701,1.69498418 C4.23433701,2.1664129 3.47280446,2.19340309 2.65006126,2.47590046 C1.54466886,2.86096056 0.840746337,3.32339255 0.840746337,4.38500684 C0.840746337,5.16412377 1.46725538,6.02061259 3.41159381,6.02061259 C3.98589377,6.02061259 4.81763854,5.81548712 5.29832221,5.61755903 L5.75200117,6.05480017 L5.75200117,4.14569379 C4.96346392,4.52175716 3.95168782,4.77906367 3.33418033,4.77906367 C2.8714998,4.77906367 2.60685374,4.62431989 2.60685374,4.4030003 C2.60685374,3.9477657 3.57542232,3.79482127 4.2595414,3.58069906 C5.31452503,3.23702393 6.04365194,2.73320697 6.04365194,1.82453711 C6.04365194,0.744929353 5.28932064,-1.92831862e-14 3.60062671,-1.92831862e-14" id="path3323"></path>
                                </g>
                                <g id="g3325" transform="translate(60.193709, 59.938621) scale(1, -1) translate(-60.193709, -59.938621) translate(56.593082, 57.239602)">
                                    <path d="M3.60062671,3.59869252 L2.65906283,1.55103648 L4.55299248,1.55103648 L3.60062671,3.59869252 L3.60062671,3.59869252 Z M4.88605045,-0.503816953 L5.24611312,-0.075572543 L4.97246549,0.523609762 L2.24679107,0.523609762 L1.96414187,-0.075572543 L2.32420454,-0.503816953 L0.225039169,-0.503816953 L2.77068225,4.78086302 L2.56364622,5.20910743 L4.49178182,5.20910743 L7.30387128,-0.503816953 L4.88605045,-0.503816953 L4.88605045,-0.503816953 Z" id="path3327"></path>
                                </g>
                                <g id="g3329" transform="translate(69.038650, 60.442439) scale(1, -1) translate(-69.038650, -60.442439) translate(66.338180, 57.743420)">
                                    <path d="M0,0 L0.360062671,0.42824441 L0.360062671,5.28467997 L0,5.71292438 L2.39081614,5.71292438 L2.03075347,5.28467997 L2.03075347,1.19116723 L4.78163227,1.19116723 L5.21010685,1.55103648 L5.21010685,0 L0,0 L0,0 Z" id="path3331"></path>
                                </g>
                                <g id="g3333" transform="translate(82.593210, 60.442439) scale(1, -1) translate(-82.593210, -60.442439) translate(78.992583, 57.743420)">
                                    <path d="M5.40094007,0 L5.76100274,0.42824441 L5.76100274,3.16864877 L4.24333858,0 L3.44760008,0 L1.73190145,3.22082981 L1.73190145,0.42824441 L2.09196412,0 L0.113419741,0 L0.473482413,0.42824441 L0.473482413,5.28467997 L0.113419741,5.71292438 L2.12797039,5.71292438 L3.98589377,2.21859394 L5.68358926,5.71292438 L7.73954712,5.71292438 L7.37948445,5.28467997 L7.37948445,0.42824441 L7.73954712,0 L5.40094007,0 L5.40094007,0 Z" id="path3335"></path>
                                </g>
                                <g id="g3337" transform="translate(93.845151, 60.555798) scale(1, -1) translate(-93.845151, -60.555798) translate(90.244524, 57.856779)">
                                    <path d="M5.40094007,5.39803879 L5.40094007,2.18620571 C5.40094007,0.609978383 4.51698621,0.00179934626 2.53844183,0.00179934626 C0.559897454,0.00179934626 -0.324056404,0.609978383 -0.324056404,2.18620571 L-0.324056404,5.39803879 L-0.684119075,5.8262832 L1.72470019,5.8262832 L1.36463752,5.39803879 L1.36463752,2.23838675 C1.36463752,1.52764498 1.83631962,1.22715415 2.53844183,1.22715415 C3.24056404,1.22715415 3.71224614,1.52764498 3.71224614,2.23838675 L3.71224614,5.39803879 L3.35218347,5.8262832 L5.76100274,5.8262832 L5.40094007,5.39803879" id="path3339"></path>
                                </g>
                                <g id="g3341" transform="translate(100.607130, 60.597180) scale(1, -1) translate(-100.607130, -60.597180) translate(97.906660, 57.898161)">
                                    <path d="M3.60062671,-1.92831862e-14 C2.77788351,-1.92831862e-14 1.77510897,0.291494095 1.33043157,0.462431989 L0.874952291,-0.034187579 L0.874952291,2.08184363 C1.83451931,1.45567113 2.91470732,1.24154892 3.52321324,1.24154892 C3.76265491,1.24154892 4.23433701,1.29372996 4.23433701,1.69498418 C4.23433701,2.1664129 3.47280446,2.19340309 2.65006126,2.47590046 C1.54466886,2.86096056 0.840746337,3.32339255 0.840746337,4.38500684 C0.840746337,5.16412377 1.46725538,6.02061259 3.41339412,6.02061259 C3.98589377,6.02061259 4.81763854,5.81548712 5.29652189,5.61755903 L5.75200117,6.05480017 L5.75200117,4.14569379 C4.96346392,4.52175716 3.95168782,4.77906367 3.33418033,4.77906367 C2.8714998,4.77906367 2.60685374,4.62431989 2.60685374,4.4030003 C2.60685374,3.9477657 3.57542232,3.79482127 4.26134171,3.58069906 C5.31452503,3.23702393 6.04365194,2.73320697 6.04365194,1.82453711 C6.04365194,0.744929353 5.28932064,-1.92831862e-14 3.60062671,-1.92831862e-14" id="path3343"></path>
                                </g>
                                <g id="g3345" transform="translate(107.891199, 60.442439) scale(1, -1) translate(-107.891199, -60.442439) translate(106.991042, 57.743420)">
                                    <path d="M0,0 L0.360062671,0.42824441 L0.360062671,5.28467997 L0,5.71292438 L2.42502209,5.71292438 L2.06495942,5.28467997 L2.06495942,0.42824441 L2.42502209,0 L0,0 L0,0 Z" id="path3347"></path>
                                </g>
                                <g id="g3349" transform="translate(114.651375, 60.553999) scale(1, -1) translate(-114.651375, -60.553999) translate(111.950905, 57.854979)">
                                    <path d="M3.60062671,0 C1.86152401,0 0.293451077,0.856488821 0.293451077,2.97252003 C0.293451077,4.64231336 1.49245977,5.93604332 3.66903862,5.93604332 C4.32975362,5.93604332 5.0408774,5.78129954 5.44234727,5.62655576 L5.8366159,6.00441848 L5.8366159,4.10250948 C5.22090873,4.47857285 4.5691953,4.70169178 3.76445523,4.70169178 C2.55464465,4.70169178 2.08296255,3.897384 2.08296255,2.97252003 C2.08296255,1.93609658 2.76888194,1.23255219 3.814864,1.23255219 C4.86804731,1.23255219 5.50355793,1.64460248 5.84561747,1.85872469 L5.84561747,0.521810416 C5.43514602,0.282497363 4.4485743,0 3.60062671,0" id="path3351"></path>
                                </g>
                                <g id="g3353" transform="translate(128.542593, 61.207158) scale(1, -1) translate(-128.542593, -61.207158) translate(125.842123, 58.508139)">
                                    <path d="M3.60062671,3.59869252 L5.64038174,3.59869252 L5.64038174,1.31172343 C5.13449369,0.995038483 4.01109816,0.653162693 3.04432988,0.653162693 C1.30342687,0.653162693 -0.333057971,1.50965151 -0.333057971,3.62388337 C-0.333057971,5.76510542 1.44925225,6.58740667 3.04432988,6.58740667 C3.96969095,6.58740667 4.5691953,6.355291 4.92925797,6.22753741 L5.38293693,6.65578182 L5.38293693,4.6944944 C4.76542945,5.03816953 4.02910129,5.35485448 3.12894461,5.35485448 C2.08296255,5.35485448 1.45825382,4.66030682 1.45825382,3.62388337 C1.45825382,2.58745993 2.08296255,1.88571488 3.12894461,1.88571488 C3.39539099,1.88571488 3.69424301,1.92889919 3.96969095,1.97928089 L3.96969095,3.16325073 L3.60062671,3.59869252" id="path3355"></path>
                                </g>
                                <g id="g3357" transform="translate(136.692610, 61.318719) scale(1, -1) translate(-136.692610, -61.318719) translate(133.992140, 58.619699)">
                                    <path d="M3.60062671,5.39803879 L2.30620141,5.39803879 L2.30620141,3.9945487 L3.39539099,3.9945487 C3.94268625,3.9945487 4.33695487,4.32742776 4.33695487,4.73947806 C4.33695487,5.21090678 3.9768922,5.39803879 3.60062671,5.39803879 M3.76265491,0.87628163 L4.12271758,1.30452604 L3.02632675,2.92393768 L2.30620141,2.92393768 L2.30620141,1.30452604 L2.66626408,0.87628163 L0.275447943,0.87628163 L0.635510615,1.30452604 L0.635510615,6.1609616 L0.275447943,6.58920601 L3.84006839,6.58920601 C5.46935197,6.58920601 6.05085319,5.81008908 6.05085319,4.85823491 C6.05085319,4.02873628 5.51976075,3.43675136 4.7582282,3.12906315 L6.308298,0.87628163 L3.76265491,0.87628163" id="path3359"></path>
                                </g>
                                <g id="g3361" transform="translate(146.273894, 61.214358) scale(1, -1) translate(-146.273894, -61.214358) translate(142.673267, 58.515339)">
                                    <path d="M3.60062671,5.39803879 C2.52944026,5.39803879 2.09376443,4.68729701 2.09376443,3.6328801 C2.09376443,2.58026254 2.52944026,1.86052404 3.60062671,1.86052404 C4.67181316,1.86052404 5.10028774,2.58026254 5.10028774,3.6328801 C5.10028774,4.68729701 4.67181316,5.39803879 3.60062671,5.39803879 M3.60062671,0.627971846 C1.98934626,0.627971846 0.293451077,1.4664672 0.293451077,3.6328801 C0.293451077,5.80109235 1.98934626,6.63059098 3.60062671,6.63059098 C5.21190716,6.63059098 6.89159953,5.80109235 6.89159953,3.6328801 C6.89159953,1.4664672 5.21190716,0.627971846 3.60062671,0.627971846" id="path3363"></path>
                                </g>
                                <g id="g3365" transform="translate(156.350248, 60.555798) scale(1, -1) translate(-156.350248, -60.555798) translate(152.749621, 57.856779)">
                                    <path d="M5.40094007,5.39803879 L5.40094007,2.18620571 C5.40094007,0.609978383 4.51878652,0.00179934626 2.53844183,0.00179934626 C0.559897454,0.00179934626 -0.324056404,0.609978383 -0.324056404,2.18620571 L-0.324056404,5.39803879 L-0.684119075,5.8262832 L1.72470019,5.8262832 L1.36463752,5.39803879 L1.36463752,2.23838675 C1.36463752,1.52764498 1.83631962,1.22715415 2.53844183,1.22715415 C3.24056404,1.22715415 3.71224614,1.52764498 3.71224614,2.23838675 L3.71224614,5.39803879 L3.35218347,5.8262832 L5.76100274,5.8262832 L5.40094007,5.39803879" id="path3367"></path>
                                </g>
                                <g id="g3369" transform="translate(163.429080, 61.318719) scale(1, -1) translate(-163.429080, -61.318719) translate(160.728610, 58.619699)">
                                    <path d="M3.60062671,5.39803879 L2.64105969,5.39803879 L2.64105969,3.66886703 L3.44579976,3.66886703 C4.21813419,3.66886703 4.64660877,3.86499577 4.64660877,4.59373101 C4.64660877,5.22710089 4.20913263,5.39803879 3.60062671,5.39803879 M3.63483267,2.53707823 L2.64105969,2.53707823 L2.64105969,1.30452604 L3.00112236,0.87628163 L0.610306228,0.87628163 L0.970368899,1.30452604 L0.970368899,6.1609616 L0.610306228,6.58920601 L3.68704175,6.58920601 C4.81763854,6.58920601 6.38571147,6.27252107 6.38571147,4.69629374 C6.38571147,2.89694748 5.00667144,2.53707823 3.63483267,2.53707823" id="path3371"></path>
                                </g>
                            </g>
                        </g>
                    </g>
                </g>
            </g>
        </g>
    </g>
</svg>