<?xml version="1.0" encoding="UTF-8" standalone="no"?>
<svg width="142px" height="33px" viewBox="0 0 142 33" version="1.1" xmlns="http://www.w3.org/2000/svg" xmlns:xlink="http://www.w3.org/1999/xlink" xmlns:sketch="http://www.bohemiancoding.com/sketch/ns">
    <title>wordpress</title>
    <description>Created with Sketch (http://www.bohemiancoding.com/sketch)</description>
    <defs></defs>
    <g id="Page-1" stroke="none" stroke-width="1" fill="none" fill-rule="evenodd" sketch:type="MSPage">
        <g id="Article" sketch:type="MSArtboardGroup" transform="translate(-434.000000, -407.000000)">
            <g id="Home" sketch:type="MSLayerGroup" transform="translate(-25.000000, 164.000000)">
                <g id="Specialized" transform="translate(64.000000, 236.000000)">
                    <text id="with" sketch:type="MSTextLayer" font-family="" font-size="14" font-weight="normal" sketch:alignment="right" fill="#B5B5B5">
                        <tspan x="572" y="26">with</tspan>
                    </text>
                    <g id="wordpress" transform="translate(395.000000, 7.000000)" sketch:type="MSShapeGroup">
                        <path d="M82.4042229,22.0251586 L82.185506,22.0251586 C81.0616774,22.0251586 80.9056618,21.7448828 80.9056618,20.3129747 L80.9056618,13.5576644 L82.4042229,13.5576644 C85.6506748,13.5576644 86.2437553,15.9230897 86.2437553,17.7599632 C86.2437553,19.6589977 85.6506748,22.0251586 82.4042229,22.0251586 L82.4042229,22.0251586 Z M69.23068,17.6974345 L69.23068,13.5576644 L70.5105242,13.5576644 C71.9154021,13.5576644 72.5398332,14.522446 72.5398332,15.6428138 C72.5398332,16.7326529 71.9154021,17.6974345 70.5105242,17.6974345 L69.23068,17.6974345 Z M82.3105397,12.6234115 L76.7227475,12.6234115 L76.7227475,13.2148598 C78.4706384,13.2148598 78.7516878,13.5881931 78.7516878,15.7987678 L78.7516878,19.7836874 C78.7516878,21.9938943 78.4706384,22.3988598 76.7227475,22.3988598 C75.3805709,22.2120092 74.4750904,21.4958713 73.2262281,20.1261241 L71.7907371,18.5695264 C73.7259943,18.2270897 74.7561397,17.0129287 74.7561397,15.6428138 C74.7561397,13.9309977 73.2889294,12.6234115 70.5418748,12.6234115 L65.0473969,12.6234115 L65.0473969,13.2148598 C66.7956566,13.2148598 67.0763371,13.5881931 67.0763371,15.7987678 L67.0763371,19.7836874 C67.0763371,21.9938943 66.7956566,22.3988598 65.0473969,22.3988598 L65.0473969,22.9899402 L71.2596203,22.9899402 L71.2596203,22.3988598 C69.5117294,22.3988598 69.23068,21.9938943 69.23068,19.7836874 L69.23068,18.6629517 L69.7614281,18.6629517 L73.2262281,22.9899402 L82.3105397,22.9899402 C86.7748722,22.9899402 88.7101294,20.6241471 88.7101294,17.7908598 C88.7101294,14.958308 86.7748722,12.6234115 82.3105397,12.6234115 L82.3105397,12.6234115 Z" id="Fill-1" fill="#006B8A"></path>
                        <path d="M47.660253,18.8498391 L49.814227,12.4983908 C50.4386582,10.6618851 50.1576088,10.1329655 48.1596504,10.1329655 L48.1596504,9.50988506 L54.0288608,9.50988506 L54.0288608,10.1329655 C52.062253,10.1329655 51.5938374,10.5997241 50.8133906,12.8724598 L47.2541699,23.5192644 L46.8488244,23.5192644 L43.6643361,13.7750805 L40.4178842,23.5192644 L40.0121699,23.5192644 L36.547001,12.8724598 C35.7979049,10.5997241 35.2981387,10.1329655 33.4875465,10.1329655 L33.4875465,9.50988506 L40.4178842,9.50988506 L40.4178842,10.1329655 C38.5759413,10.1329655 38.0765439,10.5684598 38.7323257,12.4983908 L40.8235984,18.8498391 L43.9767361,9.50988506 L44.5698166,9.50988506 L47.660253,18.8498391 Z" id="Fill-3" fill="#006B8A"></path>
                        <path d="M58.2735174,13.1838897 C55.4017979,13.1838897 54.4026343,15.7674299 54.4026343,17.7907862 C54.4026343,19.8457747 55.4017979,22.3987862 58.2735174,22.3987862 C61.1769564,22.3987862 62.1757512,19.8457747 62.1757512,17.7907862 C62.1757512,15.7674299 61.1769564,13.1838897 58.2735174,13.1838897 M58.2735174,23.3948322 C54.8396992,23.3948322 52.0299434,20.8730851 52.0299434,17.7907862 C52.0299434,14.7401195 54.8396992,12.2183724 58.2735174,12.2183724 C61.7077044,12.2183724 64.5170914,14.7401195 64.5170914,17.7907862 C64.5170914,20.8730851 61.7077044,23.3948322 58.2735174,23.3948322" id="Fill-5" fill="#006B8A"></path>
                        <path d="M95.7333018,10.630731 L93.9540603,10.630731 L93.9540603,16.0479264 L95.7333018,16.0479264 C97.4815616,16.0479264 98.2929901,14.8337655 98.2929901,13.3705931 C98.2929901,11.8765241 97.4815616,10.630731 95.7333018,10.630731 M96.4200655,22.3673747 L96.4200655,22.9900874 L89.2713797,22.9900874 L89.2713797,22.3673747 C91.3630213,22.3673747 91.7377538,21.8384552 91.7377538,18.724892 L91.7377538,13.7442943 C91.7377538,10.630731 91.3630213,10.132708 89.2713797,10.132708 L89.2713797,9.5099954 L95.7333018,9.5099954 C98.9487719,9.5099954 100.728382,11.1600184 100.728382,13.3705931 C100.728382,15.5186391 98.9487719,17.1995586 95.7333018,17.1995586 L93.9540603,17.1995586 L93.9540603,18.724892 C93.9540603,21.8384552 94.3284239,22.3673747 96.4200655,22.3673747" id="Fill-7" fill="#3E3D3A"></path>
                        <path d="M105.629411,17.6975448 L105.629411,13.5574069 L106.909255,13.5574069 C108.313764,13.5574069 108.938564,14.5221885 108.938564,15.6429241 C108.938564,16.7327632 108.313764,17.6975448 106.909255,17.6975448 L105.629411,17.6975448 Z M122.173702,20.0640736 L122.018055,20.6242575 C121.737006,21.6515678 121.393255,22.025269 119.176949,22.025269 L118.739884,22.025269 C117.117026,22.025269 116.835977,21.6515678 116.835977,19.4409931 L116.835977,18.0094529 C119.270632,18.0094529 119.457998,18.2268322 119.457998,19.8459586 L120.051447,19.8459586 L120.051447,15.2070621 L119.457998,15.2070621 C119.457998,16.8261885 119.270632,17.0439356 116.835977,17.0439356 L116.835977,13.5574069 L118.552517,13.5574069 C120.769193,13.5574069 121.112575,13.931108 121.393255,14.9584184 L121.549639,15.5494989 L122.049037,15.5494989 L121.830689,12.6235218 L112.652694,12.6235218 L112.652694,13.2146023 C114.400585,13.2146023 114.681634,13.5883034 114.681634,15.7988782 L114.681634,19.7837977 C114.681634,21.8056828 114.443001,22.315108 113.064678,22.3875678 C111.75459,22.1882115 110.85538,21.4753839 109.624959,20.1262345 L108.18873,18.5696368 C110.124725,18.2268322 111.154502,17.0130391 111.154502,15.6429241 C111.154502,13.931108 109.68766,12.6235218 106.940606,12.6235218 L101.446128,12.6235218 L101.446128,13.2146023 C103.194019,13.2146023 103.475068,13.5883034 103.475068,15.7988782 L103.475068,19.7837977 C103.475068,21.9940046 103.194019,22.3986023 101.446128,22.3986023 L101.446128,22.9900506 L107.658351,22.9900506 L107.658351,22.3986023 C105.91046,22.3986023 105.629411,21.9940046 105.629411,19.7837977 L105.629411,18.6630621 L106.15979,18.6630621 L109.624959,22.9900506 L122.454751,22.9900506 L122.642117,20.0640736 L122.173702,20.0640736 Z" id="Fill-9" fill="#3E3D3A"></path>
                        <path d="M128.510996,23.3947586 C127.262134,23.3947586 126.169287,22.7411494 125.70124,22.3361839 C125.545224,22.4921379 125.264175,22.9588966 125.201843,23.3947586 L124.608762,23.3947586 L124.608762,19.0986667 L125.232824,19.0986667 C125.482892,21.1532874 126.918752,22.3674483 128.760695,22.3674483 C129.759489,22.3674483 130.571287,21.8072644 130.571287,20.8733793 C130.571287,20.0638161 129.853172,19.4411034 128.573328,18.850023 L126.794087,18.0091954 C125.545224,17.4173793 124.608762,16.390069 124.608762,15.0203218 C124.608762,13.5262529 126.01364,12.249931 127.949266,12.249931 C128.979411,12.249931 129.853172,12.6236322 130.383921,13.0591264 C130.539936,12.9348046 130.695952,12.592 130.790004,12.2182989 L131.382715,12.2182989 L131.382715,15.8924138 L130.727302,15.8924138 C130.508585,14.4288736 129.697157,13.2147126 128.04258,13.2147126 C127.16845,13.2147126 126.356653,13.7131034 126.356653,14.4914023 C126.356653,15.3005977 127.012435,15.7364598 128.510996,16.4213333 L130.227536,17.2617931 C131.726466,17.9775632 132.319178,19.129931 132.319178,20.0638161 C132.319178,22.0250115 130.602269,23.3947586 128.510996,23.3947586" id="Fill-11" fill="#3E3D3A"></path>
                        <path d="M138.125465,23.3947586 C136.876603,23.3947586 135.783756,22.7411494 135.31571,22.3361839 C135.159694,22.4921379 134.878645,22.9588966 134.816312,23.3947586 L134.223232,23.3947586 L134.223232,19.0986667 L134.847294,19.0986667 C135.097362,21.1532874 136.533221,22.3674483 138.375164,22.3674483 C139.373959,22.3674483 140.185756,21.8072644 140.185756,20.8733793 C140.185756,20.0638161 139.467642,19.4411034 138.187798,18.850023 L136.408556,18.0091954 C135.159694,17.4173793 134.223232,16.390069 134.223232,15.0203218 C134.223232,13.5262529 135.62811,12.249931 137.563736,12.249931 C138.593881,12.249931 139.467642,12.6236322 139.99839,13.0591264 C140.154406,12.9348046 140.310421,12.592 140.404104,12.2182989 L140.997185,12.2182989 L140.997185,15.8924138 L140.341772,15.8924138 C140.123055,14.4288736 139.311626,13.2147126 137.65705,13.2147126 C136.78292,13.2147126 135.971123,13.7131034 135.971123,14.4914023 C135.971123,15.3005977 136.626904,15.7364598 138.125465,16.4213333 L139.842006,17.2617931 C141.340936,17.9775632 141.933647,19.129931 141.933647,20.0638161 C141.933647,22.0250115 140.216738,23.3947586 138.125465,23.3947586" id="Fill-13" fill="#3E3D3A"></path>
                        <path d="M2.26901247,16.0402391 C2.26901247,21.4934805 5.44686182,26.206308 10.0550384,28.4396874 L3.46513195,10.4332506 C2.69870078,12.1465379 2.26901247,14.0426299 2.26901247,16.0402391" id="Fill-15" fill="#3E3D3A"></path>
                        <path d="M25.4106234,15.3448092 C25.4106234,13.6421885 24.7972571,12.4629701 24.2713039,11.545269 C23.5712623,10.4105563 22.914374,9.44945287 22.914374,8.31474023 C22.914374,7.04798161 23.877761,5.86913103 25.2343221,5.86913103 C25.2955481,5.86913103 25.3538234,5.87685517 25.413574,5.88016552 C22.9556831,3.63428046 19.6812,2.26342989 16.0843584,2.26342989 C11.2578338,2.26342989 7.01148052,4.73257931 4.54141818,8.47290115 C4.86562078,8.48283218 5.17101299,8.48945287 5.4303013,8.48945287 C6.87538182,8.48945287 9.11234286,8.31474023 9.11234286,8.31474023 C9.85701299,8.27097011 9.94479481,9.36154483 9.20086234,9.44945287 C9.20086234,9.44945287 8.45213506,9.53736092 7.61968312,9.58076322 L12.6505403,24.5041655 L15.6742182,15.4617747 L13.5217195,9.58076322 C12.777787,9.53736092 12.0729506,9.44945287 12.0729506,9.44945287 C11.3282805,9.40605057 11.4156935,8.27097011 12.1599948,8.31474023 C12.1599948,8.31474023 14.4415844,8.48945287 15.7988831,8.48945287 C17.2435948,8.48945287 19.4809247,8.31474023 19.4809247,8.31474023 C20.2259636,8.27097011 20.3137455,9.36154483 19.5694442,9.44945287 C19.5694442,9.44945287 18.8196104,9.53736092 17.9882649,9.58076322 L22.9807636,24.3908782 L24.3587169,19.7986943 C24.9562234,17.8930391 25.4106234,16.5243954 25.4106234,15.3448092" id="Fill-17" fill="#3E3D3A"></path>
                        <path d="M16.3267174,17.2453149 L12.1817927,29.2570851 C13.4192213,29.6201195 14.7282031,29.8183724 16.0843953,29.8183724 C17.6928681,29.8183724 19.2360577,29.5410391 20.6719174,29.0374989 C20.6350343,28.9782805 20.6014706,28.9157517 20.5738083,28.8477057 L16.3267174,17.2453149 Z" id="Fill-19" fill="#3E3D3A"></path>
                        <path d="M28.2067694,9.43032644 C28.2661512,9.86913103 28.2997148,10.3403034 28.2997148,10.847154 C28.2997148,12.2448552 28.0378447,13.8165333 27.2492836,15.7817747 L23.0294862,27.949131 C27.1367901,25.5605333 29.8993356,21.1228322 29.8993356,16.0403494 C29.8993356,13.645131 29.2859694,11.3926253 28.2067694,9.43032644" id="Fill-21" fill="#3E3D3A"></path>
                        <path d="M16.0843216,31.3642299 C7.61153195,31.3642299 0.718446234,24.4901149 0.718446234,16.0402759 C0.718446234,7.5908046 7.61153195,0.717057471 16.0843216,0.717057471 C24.5567423,0.717057471 31.4494592,7.5908046 31.4494592,16.0402759 C31.4494592,24.4901149 24.5567423,31.3642299 16.0843216,31.3642299 M16.0843216,-0.0193103448 C7.20471117,-0.0193103448 -0.0199537662,7.18510345 -0.0199537662,16.0402759 C-0.0199537662,24.8965517 7.20471117,32.1005977 16.0843216,32.1005977 C24.9635631,32.1005977 32.1893345,24.8965517 32.1893345,16.0402759 C32.1893345,7.18510345 24.9635631,-0.0193103448 16.0843216,-0.0193103448" id="Fill-23" fill="#3E3D3A"></path>
                    </g>
                </g>
            </g>
        </g>
    </g>
</svg>